<svg xmlns="http://www.w3.org/2000/svg" viewBox="0 0 900 240" width="900" height="240" role="img" aria-label="Contribution heatmap for the past year"><title>Contribution heatmap for the past year</title><defs>
<linearGradient id="gold" x1="0" y1="0" x2="0" y2="1"><stop offset="0" stop-color="#fff1b8"/><stop offset=".45" stop-color="#e2b93b"/><stop offset="1" stop-color="#8a6d1f"/></linearGradient>
<linearGradient id="goldH" x1="0" y1="0" x2="1" y2="0"><stop offset="0" stop-color="#8a6d1f"/><stop offset=".5" stop-color="#f7dc7a"/><stop offset="1" stop-color="#8a6d1f"/></linearGradient>
<linearGradient id="fadeL" x1="0" y1="0" x2="1" y2="0"><stop offset="0" stop-color="#d9b13b" stop-opacity="0"/><stop offset="1" stop-color="#f0cb5a"/></linearGradient>
<linearGradient id="fadeR" x1="0" y1="0" x2="1" y2="0"><stop offset="0" stop-color="#f0cb5a"/><stop offset="1" stop-color="#d9b13b" stop-opacity="0"/></linearGradient>
<linearGradient id="silver" x1="0" y1="0" x2="0" y2="1"><stop offset="0" stop-color="#f4f7ff"/><stop offset=".5" stop-color="#aebbd6"/><stop offset="1" stop-color="#6b7896"/></linearGradient>
<linearGradient id="stone" x1="0" y1="0" x2="0" y2="1"><stop offset="0" stop-color="#151d33"/><stop offset="1" stop-color="#0a0f1d"/></linearGradient>
<radialGradient id="glowGold"><stop offset="0" stop-color="#ffd97a" stop-opacity=".65"/><stop offset="1" stop-color="#ffd97a" stop-opacity="0"/></radialGradient>
<radialGradient id="glowFire"><stop offset="0" stop-color="#ff9a2e" stop-opacity=".55"/><stop offset="1" stop-color="#ff9a2e" stop-opacity="0"/></radialGradient>
<filter id="b3" x="-60%" y="-60%" width="220%" height="220%"><feGaussianBlur stdDeviation="3"/></filter>
<filter id="b8" x="-60%" y="-60%" width="220%" height="220%"><feGaussianBlur stdDeviation="8"/></filter>
<filter id="b16" x="-60%" y="-60%" width="220%" height="220%"><feGaussianBlur stdDeviation="16"/></filter>
<linearGradient id="beam" x1="0" y1="0" x2="1" y2="0"><stop offset="0" stop-color="#fff2c0" stop-opacity="0"/><stop offset=".5" stop-color="#fff2c0" stop-opacity=".16"/><stop offset="1" stop-color="#fff2c0" stop-opacity="0"/></linearGradient><path id="ital-33" d="M-32 -276Q-35 -277 -38 -272Q-40 -266 -37 -264Q43 -234 92 -191Q142 -148 167 -102Q192 -55 198 -18Q205 18 198 46Q192 73 172 90Q153 106 120 106Q111 106 101 104Q91 102 80 98Q76 97 74 105Q72 110 74 112Q74 113 76 113Q144 131 181 169Q218 207 229 273Q238 320 228 346Q218 373 187 373Q148 373 114 344Q79 315 50 258Q48 254 42 256Q37 259 38 263L97 405Q99 408 104 406Q107 405 107 403Q108 402 107 400Q101 385 106 381Q110 377 116 377Q132 377 158 388Q185 399 219 399Q257 399 278 382Q300 365 308 338Q317 311 311 281Q305 245 283 211Q261 177 227 153Q208 140 187 131Q220 126 242 111Q272 89 282 55Q292 21 285 -16Q278 -61 240 -110Q203 -158 135 -202Q67 -245 -32 -276Z"/><path id="ital-38" d="M193 -13Q133 -13 92 10Q52 33 35 70Q18 107 25 149Q33 195 66 236Q99 276 144 306Q172 325 198 337Q188 344 179 352Q153 371 140 396Q126 420 132 456Q139 496 164 522Q189 548 224 561Q258 574 291 574Q336 574 364 555Q391 536 402 510Q413 483 409 460Q402 423 365 391Q337 367 301 346Q308 341 316 337Q345 317 370 294Q395 271 408 239Q420 207 411 161Q401 107 368 68Q334 29 288 8Q242 -13 193 -13ZM211 328Q177 307 153 274Q122 231 113 175Q107 134 117 96Q127 57 154 33Q180 9 221 9Q259 9 290 42Q321 75 329 132Q337 181 324 214Q311 247 286 270Q261 294 233 313Q221 320 211 328ZM288 355Q304 372 315 389Q331 415 335 448Q339 476 332 500Q326 524 311 540Q296 555 274 555Q248 555 229 534Q210 514 207 483Q203 447 218 422Q233 396 260 376Q273 366 288 355Z"/><path id="ital-34" d="M192 -188Q188 -190 186 -189Q183 -188 184 -182L218 9Q183 10 143 11Q79 11 -8 11Q-12 11 -14 14Q-15 18 -11 22L349 403Q351 405 357 404Q360 403 361 402Q362 400 361 398L302 58Q333 59 365 60Q365 60 365 60Q368 59 367 46Q366 32 363 18Q360 4 357 4Q326 6 293 7L264 -158Q262 -169 255 -172ZM226 56 266 286 54 62Q51 59 51 57Q52 55 58 55Q124 55 175 56Q201 56 226 56Z"/><path id="ital-20" d=""/><path id="ital-64" d="M107 -13Q81 -13 59 0Q37 14 26 44Q16 75 24 126Q34 181 62 230Q89 279 128 317Q166 355 209 377Q252 399 294 399Q317 399 337 390L376 599Q384 643 370 653Q357 663 314 642Q313 641 311 642Q309 642 308 646Q307 650 308 652Q309 653 310 653L456 725Q461 727 465 723Q469 719 468 717L354 89Q349 60 354 49Q359 38 368 38Q379 38 394 49Q408 60 426 77Q427 79 429 79Q431 79 434 77Q436 75 436 73Q436 71 434 69Q402 32 375 12Q348 -9 320 -9Q289 -9 281 15Q273 39 281 89L295 167Q281 138 266 113Q230 54 190 20Q150 -13 107 -13ZM151 50Q180 50 208 73Q235 96 258 130Q280 165 295 202Q306 230 311 253L314 268Q321 311 301 333Q279 355 246 355Q193 354 154 308Q116 261 101 175Q91 110 105 80Q119 50 151 50Z"/><path id="ital-65" d="M158 -12Q102 -12 70 16Q38 45 28 90Q19 135 29 185Q36 223 57 262Q78 300 110 331Q141 362 181 380Q221 399 267 399Q306 399 326 385Q345 371 342 345Q339 320 316 296Q292 273 254 254Q215 236 168 223Q140 215 112 210Q105 162 112 123Q119 80 144 54Q169 29 210 29Q231 29 256 36Q281 43 304 60Q304 60 305 61Q307 61 310 58Q313 54 311 52Q273 17 234 2Q195 -12 158 -12ZM114 225Q161 236 196 254Q245 279 253 324Q258 348 247 360Q236 372 217 372Q191 372 170 352Q149 331 135 296Q121 264 114 225Z"/><path id="ital-73" d="M106 -11Q63 -11 33 9Q3 29 7 58Q10 75 22 84Q33 94 47 94Q64 94 74 82Q83 71 92 56Q100 42 112 30Q125 19 147 19Q168 19 179 30Q190 42 194 66Q198 98 184 120Q170 143 146 161Q123 179 101 198Q79 217 66 240Q53 264 59 296Q64 323 84 346Q104 368 135 382Q166 396 202 396Q245 396 271 380Q297 365 294 340Q292 322 280 312Q267 303 254 303Q234 303 224 313Q215 323 209 336Q203 350 194 360Q184 370 162 370Q143 370 133 360Q123 350 120 336Q115 307 129 285Q143 263 166 244Q190 226 212 206Q235 186 248 162Q262 138 257 106Q252 80 232 52Q211 25 179 7Q147 -11 106 -11Z"/><path id="ital-69" d="M107 -9Q77 -9 68 14Q59 38 69 89L110 297Q118 337 104 346Q100 349 94 349Q84 349 68 338Q52 328 33 307Q31 305 29 305Q27 305 25 308Q21 312 24 316Q60 358 88 376Q117 395 144 395Q174 395 183 373Q192 351 183 306L141 89Q136 60 141 49Q146 38 156 38Q167 38 182 48Q196 59 214 76Q218 80 222 76Q226 72 222 68Q190 31 163 11Q136 -9 107 -9ZM173 504Q149 504 134 518Q120 531 120 557Q120 579 134 592Q149 606 173 606Q197 606 210 592Q223 579 223 557Q223 504 173 504Z"/><path id="ital-6e" d="M338 -9Q308 -9 300 15Q291 39 300 89L329 248Q344 325 319 342Q311 348 299 348Q269 348 236 309Q204 270 176 195Q150 126 133 31L129 10Q124 -8 81 -8Q63 -8 57 -6Q51 -4 51 -1Q51 3 56 26Q62 48 66 74L107 297Q114 338 101 347Q97 349 92 349Q81 349 66 338Q50 328 30 307Q29 305 27 305Q25 305 23 308Q18 312 22 316Q57 358 86 376Q115 395 142 395Q171 395 180 373Q189 351 180 306L162 204Q165 210 168 217Q202 304 248 352Q293 399 343 399Q386 399 402 368Q418 336 406 267L373 89Q368 60 372 49Q377 38 387 38Q398 38 412 49Q427 60 444 77Q445 79 447 79Q449 79 452 77Q454 75 454 73Q454 71 452 69Q421 32 394 12Q367 -9 338 -9Z"/><path id="ital-74" d="M124 -12Q102 -12 82 -4Q62 4 53 26Q44 47 51 87L91 306Q97 340 92 350Q86 360 57 360Q56 360 55 360Q53 362 54 367Q54 374 57 374Q101 374 130 400Q158 425 173 459Q174 462 183 461Q190 460 191 457Q191 457 191 456L177 377Q197 378 216 379Q245 381 268 383Q290 385 299 385Q304 385 306 382Q307 378 306 374Q305 366 294 352Q284 339 274 339Q272 339 253 342Q234 344 208 347Q190 349 172 350L129 109Q122 72 134 54Q146 37 177 37Q200 37 222 48Q243 58 265 77Q267 79 272 75Q274 72 274 70Q274 69 273 68Q228 25 193 6Q158 -12 124 -12Z"/><path id="ital-68" d="M61 -8Q43 -8 37 -6Q31 -4 31 -1Q31 3 36 26Q42 48 46 74L143 599Q151 643 138 653Q124 663 81 642Q80 641 78 642Q76 642 75 646Q74 650 75 652Q76 653 77 653L223 725Q228 727 232 723Q236 719 235 717L145 209Q146 213 148 217Q182 304 228 352Q273 399 323 399Q366 399 382 368Q398 336 386 267L353 89Q348 60 352 49Q357 38 367 38Q378 38 392 49Q407 60 424 77Q428 81 432 77Q436 73 432 69Q401 32 374 12Q347 -9 318 -9Q288 -9 280 15Q271 39 280 89L309 248Q319 299 311 324Q303 348 279 348Q249 348 216 309Q184 270 156 195Q132 132 116 47L109 10Q104 -8 61 -8Z"/><path id="ital-70" d="M-64 -275Q-65 -275 -65 -275Q-67 -275 -68 -270Q-70 -264 -66 -263Q-45 -258 -35 -252Q-25 -246 -20 -230Q-14 -215 -9 -185L76 292Q53 277 28 259Q26 257 24 257Q22 257 21 260Q17 265 20 268Q49 293 80 314L93 386Q93 389 103 396Q113 402 128 412Q142 421 154 434Q165 447 169 462Q171 466 176 465Q179 464 180 463Q180 462 180 460L163 363Q225 393 285 393Q344 393 370 357Q395 321 385 253Q378 202 354 156Q331 110 298 74Q265 39 225 19Q185 -1 145 -1Q119 -1 99 1L67 -178Q60 -218 70 -228Q80 -239 118 -235Q122 -234 124 -239Q124 -243 123 -244Q122 -246 120 -246ZM158 335 106 43Q110 42 114 40Q140 28 179 28Q217 28 242 54Q268 79 284 122Q300 166 306 220Q310 253 305 282Q300 311 282 330Q264 348 225 348Q192 348 158 335Z"/><path id="ital-61" d="M82 -13Q49 -13 30 12Q11 36 19 91Q26 143 54 197Q81 251 120 297Q160 343 205 371Q250 399 291 399Q310 399 330 392Q347 386 360 373Q378 387 388 407Q390 410 396 409Q400 407 400 406Q400 405 400 405L342 89Q335 48 348 40Q351 38 355 38Q365 38 380 48Q395 59 413 77Q416 80 420 76Q424 72 421 69Q390 32 362 12Q335 -9 309 -9Q280 -9 270 14Q260 37 268 89L282 168Q267 136 248 108Q209 50 166 18Q123 -13 82 -13ZM137 52Q162 52 188 72Q214 92 237 124Q260 156 276 192Q293 229 299 261Q307 304 292 330Q278 355 246 355Q216 354 186 328Q155 303 132 260Q109 216 99 160Q90 101 102 76Q113 52 137 52Z"/><path id="ital-79" d="M-16 -281Q-39 -281 -56 -270Q-72 -258 -68 -227Q-60 -188 -16 -188Q5 -188 23 -194Q41 -200 60 -200Q78 -201 100 -187Q122 -172 152 -135Q161 -124 170 -111Q175 104 147 221Q118 343 65 343Q52 343 40 334Q27 326 18 310Q16 306 10 308Q5 309 6 313Q25 351 56 373Q87 395 114 395Q148 395 174 362Q199 329 216 271Q232 213 239 138Q245 69 241 -10Q258 17 274 44Q302 92 322 133Q343 174 348 198Q357 231 353 254Q349 276 341 292Q333 307 326 320Q318 334 318 351Q318 371 332 384Q345 396 368 396Q392 396 404 380Q416 363 416 331Q416 298 400 248Q383 199 355 142Q327 84 290 25Q254 -34 214 -89Q173 -144 132 -188Q90 -231 52 -256Q14 -281 -16 -281Z"/><path id="ital-72" d="M125 10Q123 -8 78 -8Q60 -8 54 -6Q48 -4 48 -1Q48 3 54 26Q60 49 64 74L102 284Q107 309 106 323Q104 337 99 343Q94 349 86 349Q75 349 60 338Q45 328 27 310Q24 307 20 311Q16 315 19 319Q53 359 81 377Q109 395 136 395Q157 395 168 384Q178 374 180 352Q182 329 176 292L155 176Q161 198 169 219Q185 269 205 308Q225 348 248 372Q270 395 294 395Q309 395 325 387Q341 379 351 366Q361 352 358 336Q356 323 346 311Q335 299 318 299Q303 299 294 307Q284 315 276 323Q267 331 257 331Q245 331 230 308Q215 286 199 250Q183 214 168 171Q154 128 143 86Q132 43 125 10Z"/><path id="cin-53" d="M268 714Q287 714 313 712Q339 710 366 707Q375 705 384 704H443L442 683H441L434 565H424Q424 616 388 646Q351 676 293 676Q235 676 200 646Q166 616 165 573Q163 548 180 524Q196 501 224 481L417 338Q458 311 477 272Q496 234 494 186Q491 94 428 40Q364 -14 255 -14Q218 -14 180 -8Q141 -1 109 12Q77 26 58 45Q52 65 53 94Q54 122 61 152Q68 183 78 204H87Q83 153 104 112Q125 70 166 46Q206 23 261 24Q323 26 360 59Q398 92 398 144Q398 174 382 198Q366 223 332 243L151 380Q105 410 86 452Q66 495 69 541Q72 589 96 628Q120 668 164 691Q207 714 268 714Z"/><path id="cin-45" d="M582 190 532 0H48V10H61Q87 10 106 28Q124 47 125 73V627Q124 653 106 672Q87 690 61 690H48V700H399Q421 700 446 703Q470 706 491 710Q512 714 521 718V560H511V574Q511 612 487 637Q467 657 436 661H247V364H391Q422 365 443 386Q464 407 464 438V448H474V242H464V253Q464 284 443 305Q422 326 391 326H247V39H381Q432 39 469 58Q506 76 531 110Q556 145 572 190Z"/><path id="cin-50" d="M127 73V627Q127 653 108 672Q89 690 63 690H51L50 700H359Q438 700 490 676Q541 651 567 608Q593 565 594 508Q595 458 576 418Q558 378 526 351Q493 324 452 312Q412 299 368 304Q324 310 283 335V345L297 344Q310 343 332 346Q354 350 378 360Q403 371 424 394Q445 418 456 457Q460 470 462 486Q463 502 462 517Q461 583 427 622Q393 662 331 662H249V73Q250 47 268 28Q287 10 313 10H326V0H50V10H63Q89 10 108 28Q126 47 127 73Z"/><path id="cin-4e" d="M114 715 633 202V629Q632 655 614 672Q597 690 571 690H552V700H822V690H804Q779 690 761 672Q743 655 742 629V114Q742 78 745 49Q748 20 751 3L753 -14H744L225 498L226 71Q226 46 244 28Q262 10 287 10H306V0H35V10H54Q79 10 97 28Q115 46 115 71V590Q115 644 110 680L104 715Z"/><path id="cin-4f" d="M438 714Q553 714 640 670Q726 625 773 543Q820 461 820 350Q820 239 773 157Q726 75 640 30Q553 -14 438 -14Q322 -14 236 30Q150 75 103 157Q56 239 56 350Q56 461 103 543Q150 625 236 670Q322 714 438 714ZM438 24Q513 24 568 64Q624 104 654 177Q685 250 685 350Q685 450 654 523Q624 596 568 636Q513 676 438 676Q363 676 308 636Q252 596 222 523Q191 450 191 350Q191 250 222 177Q252 104 308 64Q363 24 438 24Z"/><path id="cin-56" d="M368 -18 74 627Q58 661 34 676Q9 690 -14 690H-22V700H265V690H256Q237 690 222 674Q208 658 219 628H218L400 178L592 632Q602 659 588 674Q573 690 553 690H544V700H754V690H745Q723 690 698 676Q676 663 661 636L422 104Q420 100 413 84Q406 69 398 49Q390 29 384 10Q378 -8 377 -18Z"/><path id="cin-44" d="M403 700Q517 700 602 658Q686 615 732 536Q778 457 778 350Q778 243 732 164Q686 86 602 43Q517 0 403 0H48V10H61Q87 10 106 28Q124 47 125 73V627Q125 653 106 672Q87 690 61 690H49L48 700ZM247 662V38H395Q472 38 528 76Q583 115 614 185Q645 255 645 350Q645 445 614 515Q583 585 527 624Q471 662 395 662Z"/><path id="cin-43" d="M718 292 720 125Q697 86 659 54Q621 23 566 4Q512 -14 439 -14Q323 -13 235 31Q147 75 98 156Q50 238 50 351Q50 462 98 544Q146 625 234 670Q322 714 443 714Q521 714 583 696Q645 679 688 655L696 494H687Q662 589 598 632Q535 676 450 676Q368 676 308 636Q249 597 216 524Q184 452 184 353Q184 254 216 180Q247 107 304 66Q362 26 439 24Q514 24 570 50Q625 75 660 134Q696 193 710 292Z"/><path id="cin-4a" d="M249 700H326V690H313Q287 690 268 672Q250 653 249 627V20Q249 -31 230 -72Q210 -114 176 -144Q143 -173 100 -188Q57 -203 10 -200V-191Q49 -175 75 -142Q101 -108 114 -65Q127 -22 127 23V627Q126 653 108 672Q89 690 63 690H50V700Z"/><path id="cin-41" d="M356 718 645 68Q660 38 683 25Q707 10 730 10H738V0H451V10H460Q479 10 494 27Q508 42 499 70L444 212H197L141 73Q133 53 138 39Q143 25 155 18Q167 10 179 10H188V0H-22V10H-13Q10 10 35 25Q56 37 71 65L302 596Q304 600 310 616Q317 631 326 651Q334 671 340 690Q346 708 347 718ZM323 521 213 250H429Z"/><path id="cin-46" d="M474 448V242H464V253Q464 284 443 305Q422 326 391 326H247V73Q248 47 266 28Q285 10 311 10H324V0H48V10H61Q87 10 106 28Q124 47 125 73V627Q124 653 106 672Q87 690 61 690H48V700H399Q421 700 446 703Q470 706 491 710Q512 714 521 718V567H511V580Q511 616 488 638Q466 661 429 661H247V364H391Q422 365 443 386Q464 407 464 438V448Z"/><path id="cin-42" d="M125 73V627Q124 653 106 672Q87 690 61 690H48V700H307Q379 700 434 682Q488 663 518 626Q549 588 549 530Q549 486 532 454Q514 422 488 404Q461 386 430 381Q482 375 522 350Q561 325 584 285Q606 245 606 193Q606 132 574 88Q541 45 481 22Q421 0 340 0H48V10H61Q87 10 106 28Q124 47 125 73ZM247 661V42H310Q357 42 392 60Q427 77 446 113Q466 149 466 203Q466 251 450 284Q434 316 408 335Q381 354 348 362Q315 370 281 370V379Q304 379 328 386Q352 392 372 408Q392 423 404 450Q417 478 417 520Q417 568 401 600Q385 631 355 646Q325 661 283 661Z"/><path id="cin-4d" d="M767 714H776L859 73Q864 43 884 26Q905 10 932 10H948V0H675V9H690Q707 9 718 22Q729 36 729 52V57L688 456L493 90L484 73Q475 55 466 30Q457 5 456 -18H446L190 453L149 57V52Q149 36 160 22Q172 9 188 9H203V0H-1V10H15Q42 10 63 26Q84 43 88 73L168 714H178L477 176Z"/><path id="cin-52" d="M127 73V627Q126 653 108 672Q89 690 63 690H50V700H369Q414 700 454 689Q495 678 526 655Q557 632 574 596Q592 561 592 512Q592 468 573 425Q554 382 517 354Q480 325 426 321Q453 312 478 288Q502 263 518 239Q519 238 530 220Q542 203 559 178Q576 153 594 128Q613 103 627 86Q649 60 668 44Q686 27 707 18Q728 10 755 10V0H672Q620 0 580 11Q539 22 509 44Q479 66 457 99Q451 108 440 126Q429 145 416 168Q403 191 390 212Q378 234 370 251Q361 268 358 275Q342 304 323 322Q304 340 282 342V352Q284 352 295 352Q306 351 320 352Q347 353 374 362Q402 371 424 396Q446 420 456 464Q458 473 460 487Q462 501 461 516Q458 586 425 622Q392 658 341 660Q322 661 301 660Q280 660 265 660H249V73Q249 47 268 28Q287 10 313 10H325V0H50V10H63Q89 10 108 28Q126 47 127 73Z"/><path id="cin-59" d="M528 628Q536 642 532 656Q528 671 518 680Q507 690 493 690H481V700H714V690H700Q669 690 642 672Q614 654 599 631L402 316V73Q402 47 421 28Q440 10 466 10H478V0H203V10H216Q242 10 260 28Q279 47 280 73V316L90 631Q76 654 49 672Q22 690 -10 690H-24V700H279V690H266Q244 690 232 670Q221 649 231 628L376 362L528 628Z"/><path id="cin-55" d="M302 700V690H286Q264 690 248 676Q233 662 233 640V260Q233 189 258 136Q282 83 327 54Q372 25 432 25Q496 25 542 52Q588 80 614 130Q639 179 639 247V640Q639 662 624 676Q608 690 586 690H570V700H771V690H755Q733 690 718 676Q702 662 702 640V251Q702 171 668 112Q634 52 570 19Q507 -14 420 -14Q322 -14 252 18Q183 51 147 110Q111 170 111 250V640Q111 662 96 676Q80 690 58 690H42V700Z"/><path id="cin-4c" d="M582 190 532 0H48V10H61Q87 10 106 28Q124 47 125 73V627Q124 653 106 672Q87 690 61 690H48V700H324V690H311Q285 690 266 672Q248 653 247 627V39H381Q432 39 469 58Q506 76 531 110Q556 145 572 190Z"/><path id="cin-47" d="M739 280V115Q716 85 672 55Q627 25 564 6Q501 -14 421 -14Q311 -13 227 32Q143 76 96 158Q50 239 50 351Q50 461 96 543Q142 625 227 670Q312 714 425 714Q480 714 530 706Q579 698 620 684Q662 671 691 655L699 494H690Q672 559 636 598Q601 638 552 657Q503 676 446 676Q363 676 304 636Q246 595 215 522Q184 448 184 347Q184 249 214 176Q243 104 298 64Q354 25 430 24Q470 24 506 35Q542 46 572 68Q601 89 618 119L619 280Q619 325 568 325H552V335H804V325H789Q759 325 747 310Q738 299 739 280Z"/><path id="cin-57" d="M528 716V714L727 238L838 628Q846 658 833 674Q820 690 800 690H791V700H997V690H989Q966 690 939 676Q914 662 903 634L734 95L729 77Q724 59 720 34Q715 8 715 -16H706L493 494L337 95L331 78Q325 61 320 36Q314 10 313 -16H304L70 629Q57 661 31 676Q5 690 -18 690H-26V700H251V690H242Q223 690 208 674Q194 658 205 628H203L335 237L519 716Z"/><path id="cin-49" d="M125 73V627Q124 653 106 672Q87 690 61 690H48V700H324V690H311Q285 690 266 672Q248 653 247 627V73Q248 47 266 28Q285 10 311 10H324V0H48V10H61Q87 10 106 28Q124 47 125 73Z"/></defs><rect x="1" y="1" width="898" height="238" rx="14" fill="url(#stone)" stroke="url(#goldH)" stroke-width="1.6"/><rect x="8" y="8" width="884" height="224" rx="11" fill="none" stroke="#d9b13b" stroke-opacity=".28"/><g transform="translate(10 10) scale(1 1)" fill="none" stroke="#d9b13b" stroke-width="1.4" stroke-linecap="round"><path d="M0 22V6Q0 0 6 0H22"/><path d="M7 22V11Q7 7 11 7H22" opacity=".55"/><circle cx="3.2" cy="3.2" r="1.7" fill="#d9b13b" stroke="none"/></g><g transform="translate(890 10) scale(-1 1)" fill="none" stroke="#d9b13b" stroke-width="1.4" stroke-linecap="round"><path d="M0 22V6Q0 0 6 0H22"/><path d="M7 22V11Q7 7 11 7H22" opacity=".55"/><circle cx="3.2" cy="3.2" r="1.7" fill="#d9b13b" stroke="none"/></g><g transform="translate(10 230) scale(1 -1)" fill="none" stroke="#d9b13b" stroke-width="1.4" stroke-linecap="round"><path d="M0 22V6Q0 0 6 0H22"/><path d="M7 22V11Q7 7 11 7H22" opacity=".55"/><circle cx="3.2" cy="3.2" r="1.7" fill="#d9b13b" stroke="none"/></g><g transform="translate(890 230) scale(-1 -1)" fill="none" stroke="#d9b13b" stroke-width="1.4" stroke-linecap="round"><path d="M0 22V6Q0 0 6 0H22"/><path d="M7 22V11Q7 7 11 7H22" opacity=".55"/><circle cx="3.2" cy="3.2" r="1.7" fill="#d9b13b" stroke="none"/></g><path d="M58.8 45.6 59 48.2Q58.6 48.8 58.1 49.2Q57.5 49.7 56.7 49.9Q55.9 50.2 54.8 50.2Q52.9 50.2 51.5 49.5Q50.2 48.9 49.4 47.7Q48.7 46.5 48.7 44.7Q48.7 43.1 49.4 41.8Q50.1 40.6 51.5 40Q52.9 39.3 54.8 39.3Q56 39.3 56.9 39.5Q57.9 39.8 58.5 40.1L58.6 42.7H58.4Q58 41.2 57.1 40.6Q56.2 39.9 55 39.9Q53.8 39.9 52.9 40.5Q52 41.1 51.6 42.2Q51.1 43.2 51.1 44.7Q51.1 46.2 51.6 47.3Q52 48.4 52.8 49Q53.6 49.5 54.8 49.6Q55.9 49.6 56.7 49.2Q57.5 48.8 58 48Q58.5 47.1 58.7 45.6ZM66.5 48.9V40.6Q66.5 40.2 66.2 39.9Q65.9 39.6 65.5 39.6H65.3V39.5H69.9V39.6H69.7Q69.3 39.6 69 39.9Q68.8 40.2 68.7 40.6V44.5H73.6V40.6Q73.6 40.2 73.3 39.9Q73 39.6 72.6 39.6H72.4V39.5H77V39.6H76.8Q76.4 39.6 76.1 39.9Q75.9 40.2 75.8 40.6V48.9Q75.9 49.3 76.1 49.6Q76.4 49.9 76.8 49.9H77V50H72.4V49.9H72.6Q73 49.9 73.3 49.6Q73.6 49.3 73.6 48.9V45.1H68.7V48.9Q68.8 49.3 69 49.6Q69.3 49.9 69.7 49.9H69.9V50H65.3V49.9H65.5Q65.9 49.9 66.2 49.6Q66.5 49.3 66.5 48.9ZM84.5 48.9V40.6Q84.4 40.2 84.2 39.9Q83.9 39.6 83.5 39.6H83.3V39.5H88.4Q89.1 39.5 89.8 39.6Q90.4 39.8 90.9 40.1Q91.4 40.5 91.7 41Q92 41.5 92 42.3Q92 43 91.8 43.6Q91.5 44.2 91 44.7Q90.4 45.1 89.6 45.2Q90 45.3 90.4 45.7Q90.8 46.1 91.1 46.5Q91.1 46.5 91.3 46.8Q91.4 47 91.7 47.4Q91.9 47.7 92.1 48.1Q92.4 48.4 92.6 48.7Q92.9 49.1 93.2 49.4Q93.5 49.6 93.8 49.7Q94.1 49.8 94.5 49.9V50H93Q92.2 50 91.5 49.9Q90.9 49.7 90.4 49.4Q89.8 49 89.5 48.4Q89.3 48.3 89.2 48Q89.1 47.7 88.9 47.4Q88.8 47.1 88.6 46.8Q88.5 46.5 88.4 46.2Q88.3 46 88.2 45.9Q88 45.4 87.8 45.2Q87.5 44.9 87.2 44.9V44.7H87.7Q88.1 44.7 88.5 44.6Q88.8 44.4 89.1 44Q89.4 43.6 89.6 43Q89.6 42.8 89.6 42.7Q89.6 42.5 89.6 42.3Q89.6 41.2 89.1 40.7Q88.6 40.2 87.8 40.2Q87.6 40.1 87.4 40.2Q87.1 40.2 86.9 40.2H86.7V48.9Q86.7 49.3 87 49.6Q87.3 49.9 87.7 49.9H87.8V50H83.3V49.9H83.5Q83.9 49.9 84.2 49.6Q84.4 49.3 84.5 48.9ZM105.5 39.3Q107.3 39.3 108.6 40Q109.9 40.6 110.6 41.8Q111.4 43.1 111.4 44.8Q111.4 46.4 110.6 47.7Q109.9 48.9 108.6 49.5Q107.3 50.2 105.5 50.2Q103.7 50.2 102.3 49.5Q101 48.9 100.3 47.7Q99.6 46.4 99.6 44.8Q99.6 43.1 100.3 41.8Q101 40.6 102.3 40Q103.7 39.3 105.5 39.3ZM105.5 49.6Q106.5 49.6 107.3 49Q108.1 48.4 108.5 47.3Q108.9 46.2 108.9 44.8Q108.9 43.3 108.5 42.2Q108.1 41.1 107.3 40.5Q106.5 39.9 105.5 39.9Q104.4 39.9 103.6 40.5Q102.9 41.1 102.4 42.2Q102 43.3 102 44.8Q102 46.2 102.4 47.3Q102.9 48.4 103.6 49Q104.4 49.6 105.5 49.6ZM118.6 39.3 126.2 46.5V40.6Q126.2 40.2 125.9 39.9Q125.7 39.6 125.3 39.6H125V39.5H129.5V39.6H129.3Q128.9 39.6 128.6 39.9Q128.4 40.2 128.3 40.6V48.3Q128.3 48.8 128.4 49.3Q128.4 49.7 128.5 50L128.5 50.2H128.4L120.8 43L120.8 48.9Q120.8 49.3 121.1 49.6Q121.4 49.9 121.7 49.9H122V50H117.5V49.9H117.8Q118.1 49.9 118.4 49.6Q118.7 49.3 118.7 48.9V41.1Q118.7 40.3 118.6 39.8L118.5 39.3ZM136.8 48.9V40.6Q136.8 40.2 136.5 39.9Q136.2 39.6 135.8 39.6H135.6V39.5H140.2V39.6H140Q139.6 39.6 139.3 39.9Q139 40.2 139 40.6V48.9Q139 49.3 139.3 49.6Q139.6 49.9 140 49.9H140.2V50H135.6V49.9H135.8Q136.2 49.9 136.5 49.6Q136.8 49.3 136.8 48.9ZM156.6 45.6 156.8 48.2Q156.4 48.8 155.9 49.2Q155.3 49.7 154.5 49.9Q153.7 50.2 152.6 50.2Q150.7 50.2 149.3 49.5Q148 48.9 147.2 47.7Q146.5 46.5 146.5 44.7Q146.5 43.1 147.2 41.8Q147.9 40.6 149.3 40Q150.7 39.3 152.6 39.3Q153.8 39.3 154.7 39.5Q155.7 39.8 156.3 40.1L156.4 42.7H156.2Q155.8 41.2 154.9 40.6Q154 39.9 152.8 39.9Q151.6 39.9 150.7 40.5Q149.9 41.1 149.4 42.2Q148.9 43.2 148.9 44.7Q148.9 46.2 149.4 47.3Q149.8 48.4 150.6 49Q151.4 49.5 152.6 49.6Q153.7 49.6 154.5 49.2Q155.3 48.8 155.8 48Q156.3 47.1 156.5 45.6ZM171.6 46.9 170.9 50H163.1V49.9H163.3Q163.7 49.9 164 49.6Q164.3 49.3 164.3 48.9V40.6Q164.3 40.2 164 39.9Q163.7 39.6 163.3 39.6H163.1V39.5H167.7V39.6H167.5Q167.1 39.6 166.8 39.9Q166.6 40.2 166.5 40.6V49.4H168.5Q169.2 49.4 169.8 49.1Q170.4 48.8 170.8 48.2Q171.2 47.7 171.4 46.9ZM185.8 46.9 185.2 50H177.4V49.9H177.6Q178 49.9 178.2 49.6Q178.5 49.3 178.5 48.9V40.6Q178.5 40.2 178.2 39.9Q178 39.6 177.6 39.6H177.4V39.5H183.1Q183.4 39.5 183.8 39.5Q184.2 39.4 184.5 39.3Q184.8 39.3 184.9 39.2V41.9H184.8V41.7Q184.8 41 184.4 40.6Q184 40.2 183.5 40.1H180.8V44.5H182.8Q183.3 44.5 183.7 44.1Q184 43.8 184 43.2V43.1H184.2V46.5H184V46.4Q184 45.9 183.7 45.5Q183.3 45.2 182.8 45.1H180.8V49.4H182.8Q183.5 49.4 184.1 49.1Q184.6 48.8 185 48.2Q185.5 47.7 185.7 46.9ZM206.6 39.3Q208.4 39.3 209.7 40Q211.1 40.6 211.8 41.8Q212.5 43.1 212.5 44.8Q212.5 46.4 211.8 47.7Q211.1 48.9 209.7 49.5Q208.4 50.2 206.6 50.2Q204.8 50.2 203.5 49.5Q202.2 48.9 201.4 47.7Q200.7 46.4 200.7 44.8Q200.7 43.1 201.4 41.8Q202.2 40.6 203.5 40Q204.8 39.3 206.6 39.3ZM206.6 49.6Q207.7 49.6 208.4 49Q209.2 48.4 209.6 47.3Q210 46.2 210 44.8Q210 43.3 209.6 42.2Q209.2 41.1 208.4 40.5Q207.7 39.9 206.6 39.9Q205.6 39.9 204.8 40.5Q204 41.1 203.6 42.2Q203.2 43.3 203.2 44.8Q203.2 46.2 203.6 47.3Q204 48.4 204.8 49Q205.6 49.6 206.6 49.6ZM225.6 43.1V46.5H225.5V46.4Q225.5 45.9 225.1 45.5Q224.7 45.2 224.2 45.1H222.2V48.9Q222.2 49.3 222.5 49.6Q222.8 49.9 223.2 49.9H223.4V50H218.8V49.9H219Q219.4 49.9 219.7 49.6Q219.9 49.3 220 48.9V40.6Q219.9 40.2 219.7 39.9Q219.4 39.6 219 39.6H218.8V39.5H224.5Q224.8 39.5 225.2 39.5Q225.6 39.4 225.9 39.3Q226.2 39.3 226.3 39.2V41.8H226.2V41.6Q226.2 40.9 225.8 40.5Q225.4 40.1 224.7 40.1H222.2V44.5H224.2Q224.7 44.5 225.1 44.1Q225.5 43.8 225.5 43.2V43.1ZM246.9 39.5Q248.7 39.5 250 40.1Q251.3 40.8 252 42Q252.7 43.1 252.7 44.8Q252.7 46.4 252 47.5Q251.3 48.7 250 49.4Q248.7 50 246.9 50H241.5V49.9H241.7Q242.1 49.9 242.4 49.6Q242.6 49.3 242.6 48.9V40.6Q242.6 40.2 242.4 39.9Q242.1 39.6 241.7 39.6H241.5L241.5 39.5ZM244.9 40.1V49.4H246.8Q247.8 49.4 248.6 48.8Q249.4 48.2 249.8 47.2Q250.2 46.2 250.2 44.8Q250.2 43.3 249.8 42.3Q249.4 41.3 248.6 40.7Q247.8 40.1 246.8 40.1ZM267.4 46.9 266.7 50H258.9V49.9H259.1Q259.5 49.9 259.8 49.6Q260 49.3 260.1 48.9V40.6Q260 40.2 259.8 39.9Q259.5 39.6 259.1 39.6H258.9V39.5H264.6Q265 39.5 265.3 39.5Q265.7 39.4 266 39.3Q266.3 39.3 266.5 39.2V41.9H266.3V41.7Q266.3 41 265.9 40.6Q265.5 40.2 265 40.1H262.3V44.5H264.3Q264.8 44.5 265.2 44.1Q265.6 43.8 265.6 43.2V43.1H265.7V46.5H265.6V46.4Q265.6 45.9 265.2 45.5Q264.8 45.2 264.3 45.1H262.3V49.4H264.3Q265 49.4 265.6 49.1Q266.2 48.8 266.6 48.2Q267 47.7 267.2 46.9ZM281.8 46.9 281.2 50H273.4V49.9H273.6Q274 49.9 274.3 49.6Q274.5 49.3 274.5 48.9V40.6Q274.5 40.2 274.3 39.9Q274 39.6 273.6 39.6H273.4V39.5H279.1Q279.4 39.5 279.8 39.5Q280.2 39.4 280.5 39.3Q280.8 39.3 280.9 39.2V41.9H280.8V41.7Q280.8 41 280.4 40.6Q280 40.2 279.5 40.1H276.8V44.5H278.8Q279.3 44.5 279.7 44.1Q280.1 43.8 280.1 43.2V43.1H280.2V46.5H280.1V46.4Q280.1 45.9 279.7 45.5Q279.3 45.2 278.8 45.1H276.8V49.4H278.8Q279.5 49.4 280.1 49.1Q280.6 48.8 281.1 48.2Q281.5 47.7 281.7 46.9ZM293.3 39.5Q295.1 39.5 296.4 40.1Q297.7 40.8 298.4 42Q299.1 43.1 299.1 44.8Q299.1 46.4 298.4 47.5Q297.7 48.7 296.4 49.4Q295.1 50 293.3 50H287.9V49.9H288.1Q288.5 49.9 288.7 49.6Q289 49.3 289 48.9V40.6Q289 40.2 288.7 39.9Q288.5 39.6 288.1 39.6H287.9L287.9 39.5ZM291.3 40.1V49.4H293.1Q294.2 49.4 295 48.8Q295.8 48.2 296.2 47.2Q296.6 46.2 296.6 44.8Q296.6 43.3 296.2 42.3Q295.8 41.3 295 40.7Q294.2 40.1 293.1 40.1ZM308.8 39.3Q309.1 39.3 309.6 39.3Q310 39.4 310.5 39.4Q310.6 39.4 310.8 39.4H311.8L311.8 39.6Q311.8 39.6 311.8 39.6L311.6 41.6H311.5Q311.5 40.9 310.9 40.4Q310.3 39.9 309.3 39.9Q308.5 39.9 307.9 40.3Q307.4 40.8 307.4 41.4Q307.4 41.8 307.7 42.1Q308 42.5 308.4 42.8L311.3 44.6Q312 45 312.3 45.6Q312.7 46.3 312.6 47.1Q312.6 48.6 311.5 49.4Q310.5 50.2 308.7 50.2Q308 50.2 307.4 50.1Q306.8 50 306.3 49.8Q305.8 49.6 305.5 49.3Q305.4 49 305.4 48.5Q305.4 48 305.6 47.6Q305.7 47.1 305.9 46.8H306Q306 47.5 306.3 48.2Q306.6 48.8 307.3 49.2Q307.9 49.6 308.8 49.6Q309.8 49.6 310.4 49.1Q310.9 48.6 310.9 47.9Q310.9 47.4 310.6 47.1Q310.3 46.7 309.7 46.3L307.1 44.6Q306.3 44.1 305.9 43.4Q305.6 42.7 305.7 41.9Q305.7 41.1 306.1 40.5Q306.5 40 307.2 39.6Q307.9 39.3 308.8 39.3Z" fill="url(#gold)" /><g fill="#8fa0c6" ><use href="#ital-33" transform="translate(686.9 50) scale(0.0180 -0.0180)"/><use href="#ital-38" transform="translate(693.2 50) scale(0.0180 -0.0180)"/><use href="#ital-34" transform="translate(701.1 50) scale(0.0180 -0.0180)"/><use href="#ital-64" transform="translate(713.1 50) scale(0.0180 -0.0180)"/><use href="#ital-65" transform="translate(721.1 50) scale(0.0180 -0.0180)"/><use href="#ital-65" transform="translate(727.5 50) scale(0.0180 -0.0180)"/><use href="#ital-64" transform="translate(733.8 50) scale(0.0180 -0.0180)"/><use href="#ital-73" transform="translate(741.9 50) scale(0.0180 -0.0180)"/><use href="#ital-69" transform="translate(751.7 50) scale(0.0180 -0.0180)"/><use href="#ital-6e" transform="translate(756.1 50) scale(0.0180 -0.0180)"/><use href="#ital-74" transform="translate(768.8 50) scale(0.0180 -0.0180)"/><use href="#ital-68" transform="translate(774.2 50) scale(0.0180 -0.0180)"/><use href="#ital-65" transform="translate(782.4 50) scale(0.0180 -0.0180)"/><use href="#ital-70" transform="translate(792.9 50) scale(0.0180 -0.0180)"/><use href="#ital-61" transform="translate(800.2 50) scale(0.0180 -0.0180)"/><use href="#ital-73" transform="translate(808.2 50) scale(0.0180 -0.0180)"/><use href="#ital-74" transform="translate(813.7 50) scale(0.0180 -0.0180)"/><use href="#ital-79" transform="translate(823.3 50) scale(0.0180 -0.0180)"/><use href="#ital-65" transform="translate(831.4 50) scale(0.0180 -0.0180)"/><use href="#ital-61" transform="translate(837.8 50) scale(0.0180 -0.0180)"/><use href="#ital-72" transform="translate(845.7 50) scale(0.0180 -0.0180)"/></g><rect x="48" y="62" width="804" height="1" fill="url(#goldH)" opacity=".4"/><g fill="#8fa0c6" ><use href="#cin-53" transform="translate(84 84) scale(0.0100 -0.0100)"/><use href="#cin-45" transform="translate(90.9 84) scale(0.0100 -0.0100)"/><use href="#cin-50" transform="translate(98.6 84) scale(0.0100 -0.0100)"/></g><g fill="#8fa0c6" ><use href="#cin-4e" transform="translate(159 84) scale(0.0100 -0.0100)"/><use href="#cin-4f" transform="translate(169.1 84) scale(0.0100 -0.0100)"/><use href="#cin-56" transform="translate(179.2 84) scale(0.0100 -0.0100)"/></g><g fill="#8fa0c6" ><use href="#cin-44" transform="translate(234 84) scale(0.0100 -0.0100)"/><use href="#cin-45" transform="translate(243.7 84) scale(0.0100 -0.0100)"/><use href="#cin-43" transform="translate(251.3 84) scale(0.0100 -0.0100)"/></g><g fill="#8fa0c6" ><use href="#cin-4a" transform="translate(294 84) scale(0.0100 -0.0100)"/><use href="#cin-41" transform="translate(299.1 84) scale(0.0100 -0.0100)"/><use href="#cin-4e" transform="translate(307.8 84) scale(0.0100 -0.0100)"/></g><g fill="#8fa0c6" ><use href="#cin-46" transform="translate(354 84) scale(0.0100 -0.0100)"/><use href="#cin-45" transform="translate(361.3 84) scale(0.0100 -0.0100)"/><use href="#cin-42" transform="translate(368.9 84) scale(0.0100 -0.0100)"/></g><g fill="#8fa0c6" ><use href="#cin-4d" transform="translate(414 84) scale(0.0100 -0.0100)"/><use href="#cin-41" transform="translate(425 84) scale(0.0100 -0.0100)"/><use href="#cin-52" transform="translate(433.6 84) scale(0.0100 -0.0100)"/></g><g fill="#8fa0c6" ><use href="#cin-41" transform="translate(489 84) scale(0.0100 -0.0100)"/><use href="#cin-50" transform="translate(497.6 84) scale(0.0100 -0.0100)"/><use href="#cin-52" transform="translate(505.4 84) scale(0.0100 -0.0100)"/></g><g fill="#8fa0c6" ><use href="#cin-4d" transform="translate(549 84) scale(0.0100 -0.0100)"/><use href="#cin-41" transform="translate(560 84) scale(0.0100 -0.0100)"/><use href="#cin-59" transform="translate(568.6 84) scale(0.0100 -0.0100)"/></g><g fill="#8fa0c6" ><use href="#cin-4a" transform="translate(624 84) scale(0.0100 -0.0100)"/><use href="#cin-55" transform="translate(629.1 84) scale(0.0100 -0.0100)"/><use href="#cin-4e" transform="translate(638.7 84) scale(0.0100 -0.0100)"/></g><g fill="#8fa0c6" ><use href="#cin-4a" transform="translate(684 84) scale(0.0100 -0.0100)"/><use href="#cin-55" transform="translate(689.1 84) scale(0.0100 -0.0100)"/><use href="#cin-4c" transform="translate(698.7 84) scale(0.0100 -0.0100)"/></g><g fill="#8fa0c6" ><use href="#cin-41" transform="translate(744 84) scale(0.0100 -0.0100)"/><use href="#cin-55" transform="translate(752.6 84) scale(0.0100 -0.0100)"/><use href="#cin-47" transform="translate(762.2 84) scale(0.0100 -0.0100)"/></g><g fill="#8fa0c6" ><use href="#cin-53" transform="translate(819 84) scale(0.0100 -0.0100)"/><use href="#cin-45" transform="translate(825.9 84) scale(0.0100 -0.0100)"/><use href="#cin-50" transform="translate(833.6 84) scale(0.0100 -0.0100)"/></g><rect x="84" y="94" width="12" height="12" rx="3" fill="#151c2f"/><rect x="84" y="109" width="12" height="12" rx="3" fill="#151c2f"/><rect x="84" y="124" width="12" height="12" rx="3" fill="#151c2f"/><rect x="84" y="139" width="12" height="12" rx="3" fill="#151c2f"/><rect x="84" y="154" width="12" height="12" rx="3" fill="#151c2f"/><rect x="84" y="169" width="12" height="12" rx="3" fill="#151c2f"/><rect x="84" y="184" width="12" height="12" rx="3" fill="#151c2f"/><rect x="99" y="94" width="12" height="12" rx="3" fill="#151c2f"/><rect x="99" y="109" width="12" height="12" rx="3" fill="#151c2f"/><rect x="99" y="124" width="12" height="12" rx="3" fill="#151c2f"/><rect x="99" y="139" width="12" height="12" rx="3" fill="#151c2f"/><rect x="99" y="154" width="12" height="12" rx="3" fill="#151c2f"/><rect x="99" y="169" width="12" height="12" rx="3" fill="#151c2f"/><rect x="99" y="184" width="12" height="12" rx="3" fill="#151c2f"/><rect x="114" y="94" width="12" height="12" rx="3" fill="#151c2f"/><rect x="114" y="109" width="12" height="12" rx="3" fill="#151c2f"/><rect x="114" y="124" width="12" height="12" rx="3" fill="#151c2f"/><rect x="114" y="139" width="12" height="12" rx="3" fill="#151c2f"/><rect x="114" y="154" width="12" height="12" rx="3" fill="#151c2f"/><rect x="114" y="169" width="12" height="12" rx="3" fill="#151c2f"/><rect x="114" y="184" width="12" height="12" rx="3" fill="#151c2f"/><rect x="129" y="94" width="12" height="12" rx="3" fill="#151c2f"/><rect x="129" y="109" width="12" height="12" rx="3" fill="#151c2f"/><rect x="129" y="124" width="12" height="12" rx="3" fill="#151c2f"/><rect x="129" y="139" width="12" height="12" rx="3" fill="#151c2f"/><rect x="129" y="154" width="12" height="12" rx="3" fill="#5a4713"/><rect x="129" y="169" width="12" height="12" rx="3" fill="#5a4713"/><rect x="129" y="184" width="12" height="12" rx="3" fill="#151c2f"/><rect x="144" y="94" width="12" height="12" rx="3" fill="#151c2f"/><rect x="144" y="109" width="12" height="12" rx="3" fill="#151c2f"/><rect x="144" y="124" width="12" height="12" rx="3" fill="#151c2f"/><rect x="144" y="139" width="12" height="12" rx="3" fill="#151c2f"/><rect x="144" y="154" width="12" height="12" rx="3" fill="#151c2f"/><rect x="144" y="169" width="12" height="12" rx="3" fill="#151c2f"/><rect x="144" y="184" width="12" height="12" rx="3" fill="#151c2f"/><rect x="159" y="94" width="12" height="12" rx="3" fill="#151c2f"/><rect x="159" y="109" width="12" height="12" rx="3" fill="#151c2f"/><rect x="159" y="124" width="12" height="12" rx="3" fill="#151c2f"/><rect x="159" y="139" width="12" height="12" rx="3" fill="#151c2f"/><rect x="159" y="154" width="12" height="12" rx="3" fill="#151c2f"/><rect x="159" y="169" width="12" height="12" rx="3" fill="#151c2f"/><rect x="159" y="184" width="12" height="12" rx="3" fill="#151c2f"/><rect x="174" y="94" width="12" height="12" rx="3" fill="#151c2f"/><rect x="174" y="109" width="12" height="12" rx="3" fill="#151c2f"/><rect x="174" y="124" width="12" height="12" rx="3" fill="#151c2f"/><rect x="174" y="139" width="12" height="12" rx="3" fill="#151c2f"/><rect x="174" y="154" width="12" height="12" rx="3" fill="#151c2f"/><rect x="174" y="169" width="12" height="12" rx="3" fill="#151c2f"/><rect x="174" y="184" width="12" height="12" rx="3" fill="#151c2f"/><rect x="189" y="94" width="12" height="12" rx="3" fill="#151c2f"/><rect x="189" y="109" width="12" height="12" rx="3" fill="#5a4713"/><rect x="189" y="124" width="12" height="12" rx="3" fill="#151c2f"/><rect x="189" y="139" width="12" height="12" rx="3" fill="#151c2f"/><rect x="189" y="154" width="12" height="12" rx="3" fill="#151c2f"/><rect x="189" y="169" width="12" height="12" rx="3" fill="#151c2f"/><rect x="189" y="184" width="12" height="12" rx="3" fill="#151c2f"/><rect x="204" y="94" width="12" height="12" rx="3" fill="#151c2f"/><rect x="204" y="109" width="12" height="12" rx="3" fill="#151c2f"/><rect x="204" y="124" width="12" height="12" rx="3" fill="#151c2f"/><rect x="204" y="139" width="12" height="12" rx="3" fill="#151c2f"/><rect x="204" y="154" width="12" height="12" rx="3" fill="#151c2f"/><rect x="204" y="169" width="12" height="12" rx="3" fill="#151c2f"/><rect x="204" y="184" width="12" height="12" rx="3" fill="#151c2f"/><rect x="219" y="94" width="12" height="12" rx="3" fill="#151c2f"/><rect x="219" y="109" width="12" height="12" rx="3" fill="#151c2f"/><rect x="219" y="124" width="12" height="12" rx="3" fill="#151c2f"/><rect x="219" y="139" width="12" height="12" rx="3" fill="#151c2f"/><rect x="219" y="154" width="12" height="12" rx="3" fill="#151c2f"/><rect x="219" y="169" width="12" height="12" rx="3" fill="#151c2f"/><rect x="219" y="184" width="12" height="12" rx="3" fill="#151c2f"/><rect x="234" y="94" width="12" height="12" rx="3" fill="#151c2f"/><rect x="234" y="109" width="12" height="12" rx="3" fill="#151c2f"/><rect x="234" y="124" width="12" height="12" rx="3" fill="#151c2f"/><rect x="234" y="139" width="12" height="12" rx="3" fill="#151c2f"/><rect x="234" y="154" width="12" height="12" rx="3" fill="#151c2f"/><rect x="234" y="169" width="12" height="12" rx="3" fill="#151c2f"/><rect x="234" y="184" width="12" height="12" rx="3" fill="#151c2f"/><rect x="249" y="94" width="12" height="12" rx="3" fill="#151c2f"/><rect x="249" y="109" width="12" height="12" rx="3" fill="#151c2f"/><rect x="249" y="124" width="12" height="12" rx="3" fill="#151c2f"/><rect x="249" y="139" width="12" height="12" rx="3" fill="#151c2f"/><rect x="249" y="154" width="12" height="12" rx="3" fill="#9a7a1c"/><rect x="249" y="169" width="12" height="12" rx="3" fill="#151c2f"/><rect x="249" y="184" width="12" height="12" rx="3" fill="#151c2f"/><rect x="264" y="94" width="12" height="12" rx="3" fill="#151c2f"/><rect x="264" y="109" width="12" height="12" rx="3" fill="#151c2f"/><rect x="264" y="124" width="12" height="12" rx="3" fill="#151c2f"/><rect x="264" y="139" width="12" height="12" rx="3" fill="#5a4713"/><rect x="264" y="154" width="12" height="12" rx="3" fill="#151c2f"/><rect x="264" y="169" width="12" height="12" rx="3" fill="#151c2f"/><rect x="264" y="184" width="12" height="12" rx="3" fill="#151c2f"/><rect x="279" y="94" width="12" height="12" rx="3" fill="#151c2f"/><rect x="279" y="109" width="12" height="12" rx="3" fill="#151c2f"/><rect x="279" y="124" width="12" height="12" rx="3" fill="#151c2f"/><rect x="279" y="139" width="12" height="12" rx="3" fill="#151c2f"/><rect x="279" y="154" width="12" height="12" rx="3" fill="#151c2f"/><rect x="279" y="169" width="12" height="12" rx="3" fill="#151c2f"/><rect x="279" y="184" width="12" height="12" rx="3" fill="#151c2f"/><rect x="294" y="94" width="12" height="12" rx="3" fill="#151c2f"/><rect x="294" y="109" width="12" height="12" rx="3" fill="#151c2f"/><rect x="294" y="124" width="12" height="12" rx="3" fill="#151c2f"/><rect x="294" y="139" width="12" height="12" rx="3" fill="#151c2f"/><rect x="294" y="154" width="12" height="12" rx="3" fill="#151c2f"/><rect x="294" y="169" width="12" height="12" rx="3" fill="#151c2f"/><rect x="294" y="184" width="12" height="12" rx="3" fill="#151c2f"/><rect x="309" y="94" width="12" height="12" rx="3" fill="#151c2f"/><rect x="309" y="109" width="12" height="12" rx="3" fill="#151c2f"/><rect x="309" y="124" width="12" height="12" rx="3" fill="#151c2f"/><rect x="309" y="139" width="12" height="12" rx="3" fill="#151c2f"/><rect x="309" y="154" width="12" height="12" rx="3" fill="#151c2f"/><rect x="309" y="169" width="12" height="12" rx="3" fill="#151c2f"/><rect x="309" y="184" width="12" height="12" rx="3" fill="#151c2f"/><rect x="324" y="94" width="12" height="12" rx="3" fill="#151c2f"/><rect x="324" y="109" width="12" height="12" rx="3" fill="#151c2f"/><rect x="324" y="124" width="12" height="12" rx="3" fill="#151c2f"/><rect x="324" y="139" width="12" height="12" rx="3" fill="#151c2f"/><rect x="324" y="154" width="12" height="12" rx="3" fill="#151c2f"/><rect x="324" y="169" width="12" height="12" rx="3" fill="#151c2f"/><rect x="324" y="184" width="12" height="12" rx="3" fill="#151c2f"/><rect x="339" y="94" width="12" height="12" rx="3" fill="#151c2f"/><rect x="339" y="109" width="12" height="12" rx="3" fill="#151c2f"/><rect x="339" y="124" width="12" height="12" rx="3" fill="#151c2f"/><rect x="339" y="139" width="12" height="12" rx="3" fill="#151c2f"/><rect x="339" y="154" width="12" height="12" rx="3" fill="#151c2f"/><rect x="339" y="169" width="12" height="12" rx="3" fill="#151c2f"/><rect x="339" y="184" width="12" height="12" rx="3" fill="#151c2f"/><rect x="354" y="94" width="12" height="12" rx="3" fill="#151c2f"/><rect x="354" y="109" width="12" height="12" rx="3" fill="#151c2f"/><rect x="354" y="124" width="12" height="12" rx="3" fill="#151c2f"/><rect x="354" y="139" width="12" height="12" rx="3" fill="#151c2f"/><rect x="354" y="154" width="12" height="12" rx="3" fill="#151c2f"/><rect x="354" y="169" width="12" height="12" rx="3" fill="#151c2f"/><rect x="354" y="184" width="12" height="12" rx="3" fill="#5a4713"/><rect x="369" y="94" width="12" height="12" rx="3" fill="#151c2f"/><rect x="369" y="109" width="12" height="12" rx="3" fill="#151c2f"/><rect x="369" y="124" width="12" height="12" rx="3" fill="#151c2f"/><rect x="369" y="139" width="12" height="12" rx="3" fill="#151c2f"/><rect x="369" y="154" width="12" height="12" rx="3" fill="#151c2f"/><rect x="369" y="169" width="12" height="12" rx="3" fill="#151c2f"/><rect x="369" y="184" width="12" height="12" rx="3" fill="#151c2f"/><rect x="384" y="94" width="12" height="12" rx="3" fill="#151c2f"/><rect x="384" y="109" width="12" height="12" rx="3" fill="#151c2f"/><rect x="384" y="124" width="12" height="12" rx="3" fill="#151c2f"/><rect x="384" y="139" width="12" height="12" rx="3" fill="#151c2f"/><rect x="384" y="154" width="12" height="12" rx="3" fill="#151c2f"/><rect x="384" y="169" width="12" height="12" rx="3" fill="#151c2f"/><rect x="384" y="184" width="12" height="12" rx="3" fill="#151c2f"/><rect x="399" y="94" width="12" height="12" rx="3" fill="#151c2f"/><rect x="399" y="109" width="12" height="12" rx="3" fill="#151c2f"/><rect x="399" y="124" width="12" height="12" rx="3" fill="#151c2f"/><rect x="399" y="139" width="12" height="12" rx="3" fill="#151c2f"/><rect x="399" y="154" width="12" height="12" rx="3" fill="#151c2f"/><rect x="399" y="169" width="12" height="12" rx="3" fill="#151c2f"/><rect x="399" y="184" width="12" height="12" rx="3" fill="#151c2f"/><rect x="414" y="94" width="12" height="12" rx="3" fill="#151c2f"/><rect x="414" y="109" width="12" height="12" rx="3" fill="#151c2f"/><rect x="414" y="124" width="12" height="12" rx="3" fill="#151c2f"/><rect x="414" y="139" width="12" height="12" rx="3" fill="#151c2f"/><rect x="414" y="154" width="12" height="12" rx="3" fill="#151c2f"/><rect x="414" y="169" width="12" height="12" rx="3" fill="#151c2f"/><rect x="414" y="184" width="12" height="12" rx="3" fill="#151c2f"/><rect x="429" y="94" width="12" height="12" rx="3" fill="#151c2f"/><rect x="429" y="109" width="12" height="12" rx="3" fill="#151c2f"/><rect x="429" y="124" width="12" height="12" rx="3" fill="#151c2f"/><rect x="429" y="139" width="12" height="12" rx="3" fill="#151c2f"/><rect x="429" y="154" width="12" height="12" rx="3" fill="#151c2f"/><rect x="429" y="169" width="12" height="12" rx="3" fill="#151c2f"/><rect x="429" y="184" width="12" height="12" rx="3" fill="#151c2f"/><rect x="444" y="94" width="12" height="12" rx="3" fill="#151c2f"/><rect x="444" y="109" width="12" height="12" rx="3" fill="#151c2f"/><rect x="444" y="124" width="12" height="12" rx="3" fill="#151c2f"/><rect x="444" y="139" width="12" height="12" rx="3" fill="#151c2f"/><rect x="444" y="154" width="12" height="12" rx="3" fill="#151c2f"/><rect x="444" y="169" width="12" height="12" rx="3" fill="#151c2f"/><rect x="444" y="184" width="12" height="12" rx="3" fill="#151c2f"/><rect x="459" y="94" width="12" height="12" rx="3" fill="#151c2f"/><rect x="459" y="109" width="12" height="12" rx="3" fill="#151c2f"/><rect x="459" y="124" width="12" height="12" rx="3" fill="#151c2f"/><rect x="459" y="139" width="12" height="12" rx="3" fill="#151c2f"/><rect x="459" y="154" width="12" height="12" rx="3" fill="#151c2f"/><rect x="459" y="169" width="12" height="12" rx="3" fill="#151c2f"/><rect x="459" y="184" width="12" height="12" rx="3" fill="#151c2f"/><rect x="474" y="94" width="12" height="12" rx="3" fill="#151c2f"/><rect x="474" y="109" width="12" height="12" rx="3" fill="#151c2f"/><rect x="474" y="124" width="12" height="12" rx="3" fill="#151c2f"/><rect x="474" y="139" width="12" height="12" rx="3" fill="#151c2f"/><rect x="474" y="154" width="12" height="12" rx="3" fill="#151c2f"/><rect x="474" y="169" width="12" height="12" rx="3" fill="#151c2f"/><rect x="474" y="184" width="12" height="12" rx="3" fill="#151c2f"/><rect x="489" y="94" width="12" height="12" rx="3" fill="#151c2f"/><rect x="489" y="109" width="12" height="12" rx="3" fill="#151c2f"/><rect x="489" y="124" width="12" height="12" rx="3" fill="#151c2f"/><rect x="489" y="139" width="12" height="12" rx="3" fill="#151c2f"/><rect x="489" y="154" width="12" height="12" rx="3" fill="#151c2f"/><rect x="489" y="169" width="12" height="12" rx="3" fill="#151c2f"/><rect x="489" y="184" width="12" height="12" rx="3" fill="#151c2f"/><rect x="504" y="94" width="12" height="12" rx="3" fill="#151c2f"/><rect x="504" y="109" width="12" height="12" rx="3" fill="#151c2f"/><rect x="504" y="124" width="12" height="12" rx="3" fill="#151c2f"/><rect x="504" y="139" width="12" height="12" rx="3" fill="#151c2f"/><rect x="504" y="154" width="12" height="12" rx="3" fill="#151c2f"/><rect x="504" y="169" width="12" height="12" rx="3" fill="#151c2f"/><rect x="504" y="184" width="12" height="12" rx="3" fill="#151c2f"/><rect x="519" y="94" width="12" height="12" rx="3" fill="#151c2f"/><rect x="519" y="109" width="12" height="12" rx="3" fill="#151c2f"/><rect x="519" y="124" width="12" height="12" rx="3" fill="#151c2f"/><rect x="519" y="139" width="12" height="12" rx="3" fill="#151c2f"/><rect x="519" y="154" width="12" height="12" rx="3" fill="#151c2f"/><rect x="519" y="169" width="12" height="12" rx="3" fill="#5a4713"/><rect x="519" y="184" width="12" height="12" rx="3" fill="#151c2f"/><rect x="534" y="94" width="12" height="12" rx="3" fill="#151c2f"/><rect x="534" y="109" width="12" height="12" rx="3" fill="#151c2f"/><rect x="534" y="124" width="12" height="12" rx="3" fill="#151c2f"/><rect x="534" y="139" width="12" height="12" rx="3" fill="#151c2f"/><rect x="534" y="154" width="12" height="12" rx="3" fill="#151c2f"/><rect x="534" y="169" width="12" height="12" rx="3" fill="#151c2f"/><rect x="534" y="184" width="12" height="12" rx="3" fill="#151c2f"/><rect x="549" y="94" width="12" height="12" rx="3" fill="#151c2f"/><rect x="549" y="109" width="12" height="12" rx="3" fill="#151c2f"/><rect x="549" y="124" width="12" height="12" rx="3" fill="#151c2f"/><rect x="549" y="139" width="12" height="12" rx="3" fill="#151c2f"/><rect x="549" y="154" width="12" height="12" rx="3" fill="#151c2f"/><rect x="549" y="169" width="12" height="12" rx="3" fill="#151c2f"/><rect x="549" y="184" width="12" height="12" rx="3" fill="#151c2f"/><rect x="564" y="94" width="12" height="12" rx="3" fill="#151c2f"/><rect x="564" y="109" width="12" height="12" rx="3" fill="#151c2f"/><rect x="564" y="124" width="12" height="12" rx="3" fill="#151c2f"/><rect x="564" y="139" width="12" height="12" rx="3" fill="#151c2f"/><rect x="564" y="154" width="12" height="12" rx="3" fill="#151c2f"/><rect x="564" y="169" width="12" height="12" rx="3" fill="#151c2f"/><rect x="564" y="184" width="12" height="12" rx="3" fill="#151c2f"/><rect x="579" y="94" width="12" height="12" rx="3" fill="#151c2f"/><rect x="579" y="109" width="12" height="12" rx="3" fill="#151c2f"/><rect x="579" y="124" width="12" height="12" rx="3" fill="#151c2f"/><rect x="579" y="139" width="12" height="12" rx="3" fill="#151c2f"/><rect x="579" y="154" width="12" height="12" rx="3" fill="#5a4713"/><rect x="579" y="169" width="12" height="12" rx="3" fill="#151c2f"/><rect x="579" y="184" width="12" height="12" rx="3" fill="#151c2f"/><rect x="594" y="94" width="12" height="12" rx="3" fill="#151c2f"/><rect x="594" y="109" width="12" height="12" rx="3" fill="#9a7a1c"/><rect x="594" y="124" width="12" height="12" rx="3" fill="#5a4713"/><rect x="594" y="139" width="12" height="12" rx="3" fill="#151c2f"/><rect x="594" y="154" width="12" height="12" rx="3" fill="#5a4713"/><rect x="594" y="169" width="12" height="12" rx="3" fill="#5a4713"/><rect x="594" y="184" width="12" height="12" rx="3" fill="#5a4713"/><rect x="609" y="94" width="12" height="12" rx="3" fill="#151c2f"/><rect x="609" y="109" width="12" height="12" rx="3" fill="#5a4713"/><rect x="609" y="124" width="12" height="12" rx="3" fill="#5a4713"/><rect x="609" y="139" width="12" height="12" rx="3" fill="#151c2f"/><rect x="609" y="154" width="12" height="12" rx="3" fill="#5a4713"/><rect x="609" y="169" width="12" height="12" rx="3" fill="#5a4713"/><rect x="609" y="184" width="12" height="12" rx="3" fill="#151c2f"/><rect x="624" y="94" width="12" height="12" rx="3" fill="#5a4713"/><rect x="624" y="109" width="12" height="12" rx="3" fill="#5a4713"/><rect x="624" y="124" width="12" height="12" rx="3" fill="#5a4713"/><rect x="624" y="139" width="12" height="12" rx="3" fill="#151c2f"/><rect x="624" y="154" width="12" height="12" rx="3" fill="#5a4713"/><rect x="624" y="169" width="12" height="12" rx="3" fill="#151c2f"/><rect x="624" y="184" width="12" height="12" rx="3" fill="#151c2f"/><rect x="639" y="94" width="12" height="12" rx="3" fill="#5a4713"/><rect x="639" y="109" width="12" height="12" rx="3" fill="#5a4713"/><rect x="639" y="124" width="12" height="12" rx="3" fill="#9a7a1c"/><rect x="639" y="139" width="12" height="12" rx="3" fill="#5a4713"/><rect x="639" y="154" width="12" height="12" rx="3" fill="#5a4713"/><rect x="639" y="169" width="12" height="12" rx="3" fill="#9a7a1c"/><rect x="639" y="184" width="12" height="12" rx="3" fill="#9a7a1c"/><rect x="654" y="94" width="12" height="12" rx="3" fill="#5a4713"/><rect x="654" y="109" width="12" height="12" rx="3" fill="#5a4713"/><rect x="654" y="124" width="12" height="12" rx="3" fill="#5a4713"/><rect x="654" y="139" width="12" height="12" rx="3" fill="#151c2f"/><rect x="654" y="154" width="12" height="12" rx="3" fill="#5a4713"/><rect x="654" y="169" width="12" height="12" rx="3" fill="#ffe38a"/><rect x="654" y="184" width="12" height="12" rx="3" fill="#151c2f"/><rect x="669" y="94" width="12" height="12" rx="3" fill="#151c2f"/><rect x="669" y="109" width="12" height="12" rx="3" fill="#151c2f"/><rect x="669" y="124" width="12" height="12" rx="3" fill="#151c2f"/><rect x="669" y="139" width="12" height="12" rx="3" fill="#151c2f"/><rect x="669" y="154" width="12" height="12" rx="3" fill="#151c2f"/><rect x="669" y="169" width="12" height="12" rx="3" fill="#151c2f"/><rect x="669" y="184" width="12" height="12" rx="3" fill="#151c2f"/><rect x="684" y="94" width="12" height="12" rx="3" fill="#5a4713"/><rect x="684" y="109" width="12" height="12" rx="3" fill="#151c2f"/><rect x="684" y="124" width="12" height="12" rx="3" fill="#5a4713"/><rect x="684" y="139" width="12" height="12" rx="3" fill="#151c2f"/><rect x="684" y="154" width="12" height="12" rx="3" fill="#5a4713"/><rect x="684" y="169" width="12" height="12" rx="3" fill="#151c2f"/><rect x="684" y="184" width="12" height="12" rx="3" fill="#151c2f"/><rect x="699" y="94" width="12" height="12" rx="3" fill="#151c2f"/><rect x="699" y="109" width="12" height="12" rx="3" fill="#5a4713"/><rect x="699" y="124" width="12" height="12" rx="3" fill="#5a4713"/><rect x="699" y="139" width="12" height="12" rx="3" fill="#151c2f"/><rect x="699" y="154" width="12" height="12" rx="3" fill="#151c2f"/><rect x="699" y="169" width="12" height="12" rx="3" fill="#151c2f"/><rect x="699" y="184" width="12" height="12" rx="3" fill="#5a4713"/><rect x="714" y="94" width="12" height="12" rx="3" fill="#5a4713"/><rect x="714" y="109" width="12" height="12" rx="3" fill="#151c2f"/><rect x="714" y="124" width="12" height="12" rx="3" fill="#151c2f"/><rect x="714" y="139" width="12" height="12" rx="3" fill="#5a4713"/><rect x="714" y="154" width="12" height="12" rx="3" fill="#5a4713"/><rect x="714" y="169" width="12" height="12" rx="3" fill="#151c2f"/><rect x="714" y="184" width="12" height="12" rx="3" fill="#151c2f"/><rect x="729" y="94" width="12" height="12" rx="3" fill="#151c2f"/><rect x="729" y="109" width="12" height="12" rx="3" fill="#151c2f"/><rect x="729" y="124" width="12" height="12" rx="3" fill="#5a4713"/><rect x="729" y="139" width="12" height="12" rx="3" fill="#151c2f"/><rect x="729" y="154" width="12" height="12" rx="3" fill="#151c2f"/><rect x="729" y="169" width="12" height="12" rx="3" fill="#151c2f"/><rect x="729" y="184" width="12" height="12" rx="3" fill="#151c2f"/><rect x="744" y="94" width="12" height="12" rx="3" fill="#5a4713"/><rect x="744" y="109" width="12" height="12" rx="3" fill="#151c2f"/><rect x="744" y="124" width="12" height="12" rx="3" fill="#9a7a1c"/><rect x="744" y="139" width="12" height="12" rx="3" fill="#151c2f"/><rect x="744" y="154" width="12" height="12" rx="3" fill="#5a4713"/><rect x="744" y="169" width="12" height="12" rx="3" fill="#151c2f"/><rect x="744" y="184" width="12" height="12" rx="3" fill="#151c2f"/><rect x="759" y="94" width="12" height="12" rx="3" fill="#151c2f"/><rect x="759" y="109" width="12" height="12" rx="3" fill="#9a7a1c"/><rect x="759" y="124" width="12" height="12" rx="3" fill="#5a4713"/><rect x="759" y="139" width="12" height="12" rx="3" fill="#151c2f"/><rect x="759" y="154" width="12" height="12" rx="3" fill="#151c2f"/><rect x="759" y="169" width="12" height="12" rx="3" fill="#151c2f"/><rect x="759" y="184" width="12" height="12" rx="3" fill="#151c2f"/><rect x="774" y="94" width="12" height="12" rx="3" fill="#5a4713"/><rect x="774" y="109" width="12" height="12" rx="3" fill="#151c2f"/><rect x="774" y="124" width="12" height="12" rx="3" fill="#151c2f"/><rect x="774" y="139" width="12" height="12" rx="3" fill="#151c2f"/><rect x="774" y="154" width="12" height="12" rx="3" fill="#5a4713"/><rect x="774" y="169" width="12" height="12" rx="3" fill="#151c2f"/><rect x="774" y="184" width="12" height="12" rx="3" fill="#9a7a1c"/><rect x="789" y="94" width="12" height="12" rx="3" fill="#5a4713"/><rect x="789" y="109" width="12" height="12" rx="3" fill="#151c2f"/><rect x="789" y="124" width="12" height="12" rx="3" fill="#151c2f"/><rect x="789" y="139" width="12" height="12" rx="3" fill="#151c2f"/><rect x="789" y="154" width="12" height="12" rx="3" fill="#151c2f"/><rect x="789" y="169" width="12" height="12" rx="3" fill="#151c2f"/><rect x="789" y="184" width="12" height="12" rx="3" fill="#151c2f"/><rect x="804" y="94" width="12" height="12" rx="3" fill="#151c2f"/><rect x="804" y="109" width="12" height="12" rx="3" fill="#151c2f"/><rect x="804" y="124" width="12" height="12" rx="3" fill="#151c2f"/><rect x="804" y="139" width="12" height="12" rx="3" fill="#151c2f"/><rect x="804" y="154" width="12" height="12" rx="3" fill="#151c2f"/><rect x="804" y="169" width="12" height="12" rx="3" fill="#151c2f"/><rect x="804" y="184" width="12" height="12" rx="3" fill="#151c2f"/><rect x="819" y="94" width="12" height="12" rx="3" fill="#151c2f"/><rect x="819" y="109" width="12" height="12" rx="3" fill="#5a4713"/><rect x="819" y="124" width="12" height="12" rx="3" fill="#5a4713"/><rect x="819" y="139" width="12" height="12" rx="3" fill="#151c2f"/><rect x="819" y="154" width="12" height="12" rx="3" fill="#151c2f"/><rect x="819" y="169" width="12" height="12" rx="3" fill="#151c2f"/><rect x="819" y="184" width="12" height="12" rx="3" fill="#151c2f"/><rect x="834" y="94" width="12" height="12" rx="3" fill="#151c2f"/><rect x="834" y="109" width="12" height="12" rx="3" fill="#151c2f"/><rect x="834" y="124" width="12" height="12" rx="3" fill="#5a4713"/><rect x="834" y="139" width="12" height="12" rx="3" fill="#151c2f"/><rect x="834" y="154" width="12" height="12" rx="3" fill="#151c2f"/><rect x="834" y="169" width="12" height="12" rx="3" fill="#151c2f"/><rect x="834" y="184" width="12" height="12" rx="3" fill="#151c2f"/><rect x="849" y="94" width="12" height="12" rx="3" fill="#9a7a1c"/><rect x="849" y="109" width="12" height="12" rx="3" fill="#151c2f"/><rect x="849" y="124" width="12" height="12" rx="3" fill="#151c2f"/><rect x="849" y="139" width="12" height="12" rx="3" fill="#151c2f"/><rect x="849" y="154" width="12" height="12" rx="3" fill="#151c2f"/><rect x="849" y="169" width="12" height="12" rx="3" fill="#151c2f"/><rect x="849" y="184" width="12" height="12" rx="3" fill="#151c2f"/><rect x="864" y="94" width="12" height="12" rx="3" fill="#151c2f"/><rect x="864" y="109" width="12" height="12" rx="3" fill="#5a4713"/><rect x="864" y="124" width="12" height="12" rx="3" fill="#9a7a1c"/><rect x="864" y="139" width="12" height="12" rx="3" fill="#151c2f"/><rect x="864" y="154" width="12" height="12" rx="3" fill="#151c2f"/><rect x="864" y="169" width="12" height="12" rx="3" fill="#151c2f"/><rect x="864" y="184" width="12" height="12" rx="3" fill="#151c2f"/><g fill="#6f7fa6" ><use href="#cin-4d" transform="translate(51.3 119) scale(0.0085 -0.0085)"/><use href="#cin-4f" transform="translate(60.4 119) scale(0.0085 -0.0085)"/><use href="#cin-4e" transform="translate(68.7 119) scale(0.0085 -0.0085)"/></g><g fill="#6f7fa6" ><use href="#cin-57" transform="translate(53.5 149) scale(0.0085 -0.0085)"/><use href="#cin-45" transform="translate(62.8 149) scale(0.0085 -0.0085)"/><use href="#cin-44" transform="translate(69 149) scale(0.0085 -0.0085)"/></g><g fill="#6f7fa6" ><use href="#cin-46" transform="translate(59.8 179) scale(0.0085 -0.0085)"/><use href="#cin-52" transform="translate(65.7 179) scale(0.0085 -0.0085)"/><use href="#cin-49" transform="translate(72.9 179) scale(0.0085 -0.0085)"/></g><clipPath id="gridclip"><rect x="84" y="94" width="795" height="105"/></clipPath><g clip-path="url(#gridclip)"><rect y="94" width="110" height="105" fill="url(#beam)"><animate attributeName="x" values="-26;879" dur="7s" repeatCount="indefinite"/></rect></g><g fill="#6f7fa6" ><use href="#cin-46" transform="translate(674.7 216) scale(0.0095 -0.0095)"/><use href="#cin-45" transform="translate(682.2 216) scale(0.0095 -0.0095)"/><use href="#cin-57" transform="translate(690 216) scale(0.0095 -0.0095)"/><use href="#cin-45" transform="translate(701.3 216) scale(0.0095 -0.0095)"/><use href="#cin-52" transform="translate(709.1 216) scale(0.0095 -0.0095)"/></g><rect x="726" y="206" width="12" height="12" rx="3" fill="#151c2f"/><rect x="742" y="206" width="12" height="12" rx="3" fill="#5a4713"/><rect x="758" y="206" width="12" height="12" rx="3" fill="#9a7a1c"/><rect x="774" y="206" width="12" height="12" rx="3" fill="#dcae2e"/><rect x="790" y="206" width="12" height="12" rx="3" fill="#ffe38a"/><g fill="#6f7fa6" ><use href="#cin-4d" transform="translate(812 216) scale(0.0095 -0.0095)"/><use href="#cin-4f" transform="translate(823 216) scale(0.0095 -0.0095)"/><use href="#cin-52" transform="translate(833.2 216) scale(0.0095 -0.0095)"/><use href="#cin-45" transform="translate(842.1 216) scale(0.0095 -0.0095)"/></g></svg>