<svg xmlns="http://www.w3.org/2000/svg" viewBox="0 0 900 240" width="900" height="240" role="img" aria-label="Cyber Contribution Heatmap"><title>Cyber Contribution Heatmap</title><defs>
<linearGradient id="cyberSky" x1="0" y1="0" x2="0" y2="1">
  <stop offset="0" stop-color="#02040a"/>
  <stop offset=".4" stop-color="#060b18"/>
  <stop offset=".8" stop-color="#0a152e"/>
  <stop offset="1" stop-color="#121026"/>
</linearGradient>

<linearGradient id="neonCyan" x1="0" y1="0" x2="1" y2="0">
  <stop offset="0" stop-color="#00c8ff"/>
  <stop offset=".5" stop-color="#00f0ff"/>
  <stop offset="1" stop-color="#70f8ff"/>
</linearGradient>

<linearGradient id="neonMagenta" x1="0" y1="0" x2="1" y2="0">
  <stop offset="0" stop-color="#ff0055"/>
  <stop offset=".5" stop-color="#ff00a0"/>
  <stop offset="1" stop-color="#bf00ff"/>
</linearGradient>

<linearGradient id="cyberLaser" x1="0" y1="0" x2="1" y2="0">
  <stop offset="0" stop-color="#00f0ff" stop-opacity="0"/>
  <stop offset=".15" stop-color="#00f0ff" stop-opacity=".8"/>
  <stop offset=".5" stop-color="#ffffff" stop-opacity="1"/>
  <stop offset=".85" stop-color="#ff007f" stop-opacity=".8"/>
  <stop offset="1" stop-color="#ff007f" stop-opacity="0"/>
</linearGradient>

<linearGradient id="scanBeam" x1="0" y1="0" x2="0" y2="1">
  <stop offset="0" stop-color="#00f0ff" stop-opacity="0"/>
  <stop offset=".8" stop-color="#00f0ff" stop-opacity=".15"/>
  <stop offset="1" stop-color="#00f0ff" stop-opacity=".85"/>
</linearGradient>

<linearGradient id="cyberCardBg" x1="0" y1="0" x2="0" y2="1">
  <stop offset="0" stop-color="#091224" stop-opacity=".96"/>
  <stop offset="1" stop-color="#050a16" stop-opacity=".98"/>
</linearGradient>

<pattern id="cyberGrid" width="30" height="30" patternUnits="userSpaceOnUse">
  <path d="M 30 0 L 0 0 0 30" fill="none" stroke="#00f0ff" stroke-width=".7" stroke-opacity=".08"/>
</pattern>

<pattern id="hexGrid" width="28" height="48.5" patternUnits="userSpaceOnUse">
  <path d="M14 0L28 8.08V24.25L14 32.33L0 24.25V8.08Z M0 48.5L14 40.42L28 48.5" fill="none" stroke="#00f0ff" stroke-width=".6" stroke-opacity=".06"/>
</pattern>

<filter id="glowCyan" x="-40%" y="-40%" width="180%" height="180%">
  <feGaussianBlur stdDeviation="3.5" result="blur"/>
  <feMerge>
    <feMergeNode in="blur"/>
    <feMergeNode in="SourceGraphic"/>
  </feMerge>
</filter>

<filter id="glowMagenta" x="-40%" y="-40%" width="180%" height="180%">
  <feGaussianBlur stdDeviation="3.5" result="blur"/>
  <feMerge>
    <feMergeNode in="blur"/>
    <feMergeNode in="SourceGraphic"/>
  </feMerge>
</filter>

<filter id="laserBlur" x="-20%" y="-20%" width="140%" height="140%">
  <feGaussianBlur stdDeviation="5"/>
</filter>
</defs><polygon points="14,0 886,0 900,14 900,226 886,240 14,240 0,226 0,14" fill="url(#cyberCardBg)" stroke="#142442" stroke-width="1.2"/><polygon points="16,2 884,2 898,16 898,224 884,238 16,238 2,224 2,16" fill="url(#cyberGrid)" opacity=".7"/><path d="M 0,24 L 0,14 L 14,0 L 28,0" fill="none" stroke="#00f0ff" stroke-width="2.2"/><path d="M 872,0 L 886,0 L 900,14 L 900,24" fill="none" stroke="#00f0ff" stroke-width="2.2"/><path d="M 900,216 L 900,226 L 886,240 L 872,240" fill="none" stroke="#ff007f" stroke-width="2.2"/><path d="M 28,240 L 14,240 L 0,226 L 0,216" fill="none" stroke="#ff007f" stroke-width="2.2"/><line x1="410" y1="1" x2="490" y2="1" stroke="#00f0ff" stroke-width="2" stroke-opacity=".7"/><circle cx="406" cy="1" r="1.5" fill="#00f0ff"/><circle cx="494" cy="1" r="1.5" fill="#00f0ff"/><text x="48" y="48" fill="#00f0ff" font-family="monospace" font-size="14" font-weight="bold" letter-spacing="2">CHRONICLE // NEURAL FIRINGS MATRIX</text><text x="852" y="48" fill="#00ff9d" font-family="monospace" font-size="11" text-anchor="end">386 CONTRIBUTIONS IN PAST YEAR<line x1="48" y1="62" x2="852" y2="62" stroke="#142442" stroke-width="1.2"/><text x="84" y="82" fill="#7898ba" font-family="monospace" font-size="9.5">SEP</text><text x="159" y="82" fill="#7898ba" font-family="monospace" font-size="9.5">NOV</text><text x="234" y="82" fill="#7898ba" font-family="monospace" font-size="9.5">DEC</text><text x="294" y="82" fill="#7898ba" font-family="monospace" font-size="9.5">JAN</text><text x="354" y="82" fill="#7898ba" font-family="monospace" font-size="9.5">FEB</text><text x="414" y="82" fill="#7898ba" font-family="monospace" font-size="9.5">MAR</text><text x="489" y="82" fill="#7898ba" font-family="monospace" font-size="9.5">APR</text><text x="549" y="82" fill="#7898ba" font-family="monospace" font-size="9.5">MAY</text><text x="624" y="82" fill="#7898ba" font-family="monospace" font-size="9.5">JUN</text><text x="684" y="82" fill="#7898ba" font-family="monospace" font-size="9.5">JUL</text><text x="744" y="82" fill="#7898ba" font-family="monospace" font-size="9.5">AUG</text><text x="819" y="82" fill="#7898ba" font-family="monospace" font-size="9.5">SEP</text><rect x="84" y="94" width="12" height="12" fill="#070d1c" stroke="#040814" stroke-width=".6"/><rect x="84" y="109" width="12" height="12" fill="#070d1c" stroke="#040814" stroke-width=".6"/><rect x="84" y="124" width="12" height="12" fill="#070d1c" stroke="#040814" stroke-width=".6"/><rect x="84" y="139" width="12" height="12" fill="#070d1c" stroke="#040814" stroke-width=".6"/><rect x="84" y="154" width="12" height="12" fill="#070d1c" stroke="#040814" stroke-width=".6"/><rect x="84" y="169" width="12" height="12" fill="#070d1c" stroke="#040814" stroke-width=".6"/><rect x="84" y="184" width="12" height="12" fill="#070d1c" stroke="#040814" stroke-width=".6"/><rect x="99" y="94" width="12" height="12" fill="#070d1c" stroke="#040814" stroke-width=".6"/><rect x="99" y="109" width="12" height="12" fill="#070d1c" stroke="#040814" stroke-width=".6"/><rect x="99" y="124" width="12" height="12" fill="#070d1c" stroke="#040814" stroke-width=".6"/><rect x="99" y="139" width="12" height="12" fill="#070d1c" stroke="#040814" stroke-width=".6"/><rect x="99" y="154" width="12" height="12" fill="#070d1c" stroke="#040814" stroke-width=".6"/><rect x="99" y="169" width="12" height="12" fill="#070d1c" stroke="#040814" stroke-width=".6"/><rect x="99" y="184" width="12" height="12" fill="#070d1c" stroke="#040814" stroke-width=".6"/><rect x="114" y="94" width="12" height="12" fill="#070d1c" stroke="#040814" stroke-width=".6"/><rect x="114" y="109" width="12" height="12" fill="#070d1c" stroke="#040814" stroke-width=".6"/><rect x="114" y="124" width="12" height="12" fill="#070d1c" stroke="#040814" stroke-width=".6"/><rect x="114" y="139" width="12" height="12" fill="#070d1c" stroke="#040814" stroke-width=".6"/><rect x="114" y="154" width="12" height="12" fill="#070d1c" stroke="#040814" stroke-width=".6"/><rect x="114" y="169" width="12" height="12" fill="#070d1c" stroke="#040814" stroke-width=".6"/><rect x="114" y="184" width="12" height="12" fill="#070d1c" stroke="#040814" stroke-width=".6"/><rect x="129" y="94" width="12" height="12" fill="#070d1c" stroke="#040814" stroke-width=".6"/><rect x="129" y="109" width="12" height="12" fill="#070d1c" stroke="#040814" stroke-width=".6"/><rect x="129" y="124" width="12" height="12" fill="#070d1c" stroke="#040814" stroke-width=".6"/><rect x="129" y="139" width="12" height="12" fill="#070d1c" stroke="#040814" stroke-width=".6"/><rect x="129" y="154" width="12" height="12" fill="#004759" stroke="#040814" stroke-width=".6"/><rect x="129" y="169" width="12" height="12" fill="#004759" stroke="#040814" stroke-width=".6"/><rect x="129" y="184" width="12" height="12" fill="#070d1c" stroke="#040814" stroke-width=".6"/><rect x="144" y="94" width="12" height="12" fill="#070d1c" stroke="#040814" stroke-width=".6"/><rect x="144" y="109" width="12" height="12" fill="#070d1c" stroke="#040814" stroke-width=".6"/><rect x="144" y="124" width="12" height="12" fill="#070d1c" stroke="#040814" stroke-width=".6"/><rect x="144" y="139" width="12" height="12" fill="#070d1c" stroke="#040814" stroke-width=".6"/><rect x="144" y="154" width="12" height="12" fill="#070d1c" stroke="#040814" stroke-width=".6"/><rect x="144" y="169" width="12" height="12" fill="#070d1c" stroke="#040814" stroke-width=".6"/><rect x="144" y="184" width="12" height="12" fill="#070d1c" stroke="#040814" stroke-width=".6"/><rect x="159" y="94" width="12" height="12" fill="#070d1c" stroke="#040814" stroke-width=".6"/><rect x="159" y="109" width="12" height="12" fill="#070d1c" stroke="#040814" stroke-width=".6"/><rect x="159" y="124" width="12" height="12" fill="#070d1c" stroke="#040814" stroke-width=".6"/><rect x="159" y="139" width="12" height="12" fill="#070d1c" stroke="#040814" stroke-width=".6"/><rect x="159" y="154" width="12" height="12" fill="#070d1c" stroke="#040814" stroke-width=".6"/><rect x="159" y="169" width="12" height="12" fill="#070d1c" stroke="#040814" stroke-width=".6"/><rect x="159" y="184" width="12" height="12" fill="#070d1c" stroke="#040814" stroke-width=".6"/><rect x="174" y="94" width="12" height="12" fill="#070d1c" stroke="#040814" stroke-width=".6"/><rect x="174" y="109" width="12" height="12" fill="#070d1c" stroke="#040814" stroke-width=".6"/><rect x="174" y="124" width="12" height="12" fill="#070d1c" stroke="#040814" stroke-width=".6"/><rect x="174" y="139" width="12" height="12" fill="#070d1c" stroke="#040814" stroke-width=".6"/><rect x="174" y="154" width="12" height="12" fill="#070d1c" stroke="#040814" stroke-width=".6"/><rect x="174" y="169" width="12" height="12" fill="#070d1c" stroke="#040814" stroke-width=".6"/><rect x="174" y="184" width="12" height="12" fill="#070d1c" stroke="#040814" stroke-width=".6"/><rect x="189" y="94" width="12" height="12" fill="#070d1c" stroke="#040814" stroke-width=".6"/><rect x="189" y="109" width="12" height="12" fill="#004759" stroke="#040814" stroke-width=".6"/><rect x="189" y="124" width="12" height="12" fill="#070d1c" stroke="#040814" stroke-width=".6"/><rect x="189" y="139" width="12" height="12" fill="#070d1c" stroke="#040814" stroke-width=".6"/><rect x="189" y="154" width="12" height="12" fill="#070d1c" stroke="#040814" stroke-width=".6"/><rect x="189" y="169" width="12" height="12" fill="#070d1c" stroke="#040814" stroke-width=".6"/><rect x="189" y="184" width="12" height="12" fill="#070d1c" stroke="#040814" stroke-width=".6"/><rect x="204" y="94" width="12" height="12" fill="#070d1c" stroke="#040814" stroke-width=".6"/><rect x="204" y="109" width="12" height="12" fill="#070d1c" stroke="#040814" stroke-width=".6"/><rect x="204" y="124" width="12" height="12" fill="#070d1c" stroke="#040814" stroke-width=".6"/><rect x="204" y="139" width="12" height="12" fill="#070d1c" stroke="#040814" stroke-width=".6"/><rect x="204" y="154" width="12" height="12" fill="#070d1c" stroke="#040814" stroke-width=".6"/><rect x="204" y="169" width="12" height="12" fill="#070d1c" stroke="#040814" stroke-width=".6"/><rect x="204" y="184" width="12" height="12" fill="#070d1c" stroke="#040814" stroke-width=".6"/><rect x="219" y="94" width="12" height="12" fill="#070d1c" stroke="#040814" stroke-width=".6"/><rect x="219" y="109" width="12" height="12" fill="#070d1c" stroke="#040814" stroke-width=".6"/><rect x="219" y="124" width="12" height="12" fill="#070d1c" stroke="#040814" stroke-width=".6"/><rect x="219" y="139" width="12" height="12" fill="#070d1c" stroke="#040814" stroke-width=".6"/><rect x="219" y="154" width="12" height="12" fill="#070d1c" stroke="#040814" stroke-width=".6"/><rect x="219" y="169" width="12" height="12" fill="#070d1c" stroke="#040814" stroke-width=".6"/><rect x="219" y="184" width="12" height="12" fill="#070d1c" stroke="#040814" stroke-width=".6"/><rect x="234" y="94" width="12" height="12" fill="#070d1c" stroke="#040814" stroke-width=".6"/><rect x="234" y="109" width="12" height="12" fill="#070d1c" stroke="#040814" stroke-width=".6"/><rect x="234" y="124" width="12" height="12" fill="#070d1c" stroke="#040814" stroke-width=".6"/><rect x="234" y="139" width="12" height="12" fill="#070d1c" stroke="#040814" stroke-width=".6"/><rect x="234" y="154" width="12" height="12" fill="#070d1c" stroke="#040814" stroke-width=".6"/><rect x="234" y="169" width="12" height="12" fill="#070d1c" stroke="#040814" stroke-width=".6"/><rect x="234" y="184" width="12" height="12" fill="#070d1c" stroke="#040814" stroke-width=".6"/><rect x="249" y="94" width="12" height="12" fill="#070d1c" stroke="#040814" stroke-width=".6"/><rect x="249" y="109" width="12" height="12" fill="#070d1c" stroke="#040814" stroke-width=".6"/><rect x="249" y="124" width="12" height="12" fill="#070d1c" stroke="#040814" stroke-width=".6"/><rect x="249" y="139" width="12" height="12" fill="#070d1c" stroke="#040814" stroke-width=".6"/><rect x="249" y="154" width="12" height="12" fill="#008399" stroke="#040814" stroke-width=".6"/><rect x="249" y="169" width="12" height="12" fill="#070d1c" stroke="#040814" stroke-width=".6"/><rect x="249" y="184" width="12" height="12" fill="#070d1c" stroke="#040814" stroke-width=".6"/><rect x="264" y="94" width="12" height="12" fill="#070d1c" stroke="#040814" stroke-width=".6"/><rect x="264" y="109" width="12" height="12" fill="#070d1c" stroke="#040814" stroke-width=".6"/><rect x="264" y="124" width="12" height="12" fill="#070d1c" stroke="#040814" stroke-width=".6"/><rect x="264" y="139" width="12" height="12" fill="#004759" stroke="#040814" stroke-width=".6"/><rect x="264" y="154" width="12" height="12" fill="#070d1c" stroke="#040814" stroke-width=".6"/><rect x="264" y="169" width="12" height="12" fill="#070d1c" stroke="#040814" stroke-width=".6"/><rect x="264" y="184" width="12" height="12" fill="#070d1c" stroke="#040814" stroke-width=".6"/><rect x="279" y="94" width="12" height="12" fill="#070d1c" stroke="#040814" stroke-width=".6"/><rect x="279" y="109" width="12" height="12" fill="#070d1c" stroke="#040814" stroke-width=".6"/><rect x="279" y="124" width="12" height="12" fill="#070d1c" stroke="#040814" stroke-width=".6"/><rect x="279" y="139" width="12" height="12" fill="#070d1c" stroke="#040814" stroke-width=".6"/><rect x="279" y="154" width="12" height="12" fill="#070d1c" stroke="#040814" stroke-width=".6"/><rect x="279" y="169" width="12" height="12" fill="#070d1c" stroke="#040814" stroke-width=".6"/><rect x="279" y="184" width="12" height="12" fill="#070d1c" stroke="#040814" stroke-width=".6"/><rect x="294" y="94" width="12" height="12" fill="#070d1c" stroke="#040814" stroke-width=".6"/><rect x="294" y="109" width="12" height="12" fill="#070d1c" stroke="#040814" stroke-width=".6"/><rect x="294" y="124" width="12" height="12" fill="#070d1c" stroke="#040814" stroke-width=".6"/><rect x="294" y="139" width="12" height="12" fill="#070d1c" stroke="#040814" stroke-width=".6"/><rect x="294" y="154" width="12" height="12" fill="#070d1c" stroke="#040814" stroke-width=".6"/><rect x="294" y="169" width="12" height="12" fill="#070d1c" stroke="#040814" stroke-width=".6"/><rect x="294" y="184" width="12" height="12" fill="#070d1c" stroke="#040814" stroke-width=".6"/><rect x="309" y="94" width="12" height="12" fill="#070d1c" stroke="#040814" stroke-width=".6"/><rect x="309" y="109" width="12" height="12" fill="#070d1c" stroke="#040814" stroke-width=".6"/><rect x="309" y="124" width="12" height="12" fill="#070d1c" stroke="#040814" stroke-width=".6"/><rect x="309" y="139" width="12" height="12" fill="#070d1c" stroke="#040814" stroke-width=".6"/><rect x="309" y="154" width="12" height="12" fill="#070d1c" stroke="#040814" stroke-width=".6"/><rect x="309" y="169" width="12" height="12" fill="#070d1c" stroke="#040814" stroke-width=".6"/><rect x="309" y="184" width="12" height="12" fill="#070d1c" stroke="#040814" stroke-width=".6"/><rect x="324" y="94" width="12" height="12" fill="#070d1c" stroke="#040814" stroke-width=".6"/><rect x="324" y="109" width="12" height="12" fill="#070d1c" stroke="#040814" stroke-width=".6"/><rect x="324" y="124" width="12" height="12" fill="#070d1c" stroke="#040814" stroke-width=".6"/><rect x="324" y="139" width="12" height="12" fill="#070d1c" stroke="#040814" stroke-width=".6"/><rect x="324" y="154" width="12" height="12" fill="#070d1c" stroke="#040814" stroke-width=".6"/><rect x="324" y="169" width="12" height="12" fill="#070d1c" stroke="#040814" stroke-width=".6"/><rect x="324" y="184" width="12" height="12" fill="#070d1c" stroke="#040814" stroke-width=".6"/><rect x="339" y="94" width="12" height="12" fill="#070d1c" stroke="#040814" stroke-width=".6"/><rect x="339" y="109" width="12" height="12" fill="#070d1c" stroke="#040814" stroke-width=".6"/><rect x="339" y="124" width="12" height="12" fill="#070d1c" stroke="#040814" stroke-width=".6"/><rect x="339" y="139" width="12" height="12" fill="#070d1c" stroke="#040814" stroke-width=".6"/><rect x="339" y="154" width="12" height="12" fill="#070d1c" stroke="#040814" stroke-width=".6"/><rect x="339" y="169" width="12" height="12" fill="#070d1c" stroke="#040814" stroke-width=".6"/><rect x="339" y="184" width="12" height="12" fill="#070d1c" stroke="#040814" stroke-width=".6"/><rect x="354" y="94" width="12" height="12" fill="#070d1c" stroke="#040814" stroke-width=".6"/><rect x="354" y="109" width="12" height="12" fill="#070d1c" stroke="#040814" stroke-width=".6"/><rect x="354" y="124" width="12" height="12" fill="#070d1c" stroke="#040814" stroke-width=".6"/><rect x="354" y="139" width="12" height="12" fill="#070d1c" stroke="#040814" stroke-width=".6"/><rect x="354" y="154" width="12" height="12" fill="#070d1c" stroke="#040814" stroke-width=".6"/><rect x="354" y="169" width="12" height="12" fill="#070d1c" stroke="#040814" stroke-width=".6"/><rect x="354" y="184" width="12" height="12" fill="#004759" stroke="#040814" stroke-width=".6"/><rect x="369" y="94" width="12" height="12" fill="#070d1c" stroke="#040814" stroke-width=".6"/><rect x="369" y="109" width="12" height="12" fill="#070d1c" stroke="#040814" stroke-width=".6"/><rect x="369" y="124" width="12" height="12" fill="#070d1c" stroke="#040814" stroke-width=".6"/><rect x="369" y="139" width="12" height="12" fill="#070d1c" stroke="#040814" stroke-width=".6"/><rect x="369" y="154" width="12" height="12" fill="#070d1c" stroke="#040814" stroke-width=".6"/><rect x="369" y="169" width="12" height="12" fill="#070d1c" stroke="#040814" stroke-width=".6"/><rect x="369" y="184" width="12" height="12" fill="#070d1c" stroke="#040814" stroke-width=".6"/><rect x="384" y="94" width="12" height="12" fill="#070d1c" stroke="#040814" stroke-width=".6"/><rect x="384" y="109" width="12" height="12" fill="#070d1c" stroke="#040814" stroke-width=".6"/><rect x="384" y="124" width="12" height="12" fill="#070d1c" stroke="#040814" stroke-width=".6"/><rect x="384" y="139" width="12" height="12" fill="#070d1c" stroke="#040814" stroke-width=".6"/><rect x="384" y="154" width="12" height="12" fill="#070d1c" stroke="#040814" stroke-width=".6"/><rect x="384" y="169" width="12" height="12" fill="#070d1c" stroke="#040814" stroke-width=".6"/><rect x="384" y="184" width="12" height="12" fill="#070d1c" stroke="#040814" stroke-width=".6"/><rect x="399" y="94" width="12" height="12" fill="#070d1c" stroke="#040814" stroke-width=".6"/><rect x="399" y="109" width="12" height="12" fill="#070d1c" stroke="#040814" stroke-width=".6"/><rect x="399" y="124" width="12" height="12" fill="#070d1c" stroke="#040814" stroke-width=".6"/><rect x="399" y="139" width="12" height="12" fill="#070d1c" stroke="#040814" stroke-width=".6"/><rect x="399" y="154" width="12" height="12" fill="#070d1c" stroke="#040814" stroke-width=".6"/><rect x="399" y="169" width="12" height="12" fill="#070d1c" stroke="#040814" stroke-width=".6"/><rect x="399" y="184" width="12" height="12" fill="#070d1c" stroke="#040814" stroke-width=".6"/><rect x="414" y="94" width="12" height="12" fill="#070d1c" stroke="#040814" stroke-width=".6"/><rect x="414" y="109" width="12" height="12" fill="#070d1c" stroke="#040814" stroke-width=".6"/><rect x="414" y="124" width="12" height="12" fill="#070d1c" stroke="#040814" stroke-width=".6"/><rect x="414" y="139" width="12" height="12" fill="#070d1c" stroke="#040814" stroke-width=".6"/><rect x="414" y="154" width="12" height="12" fill="#070d1c" stroke="#040814" stroke-width=".6"/><rect x="414" y="169" width="12" height="12" fill="#070d1c" stroke="#040814" stroke-width=".6"/><rect x="414" y="184" width="12" height="12" fill="#070d1c" stroke="#040814" stroke-width=".6"/><rect x="429" y="94" width="12" height="12" fill="#070d1c" stroke="#040814" stroke-width=".6"/><rect x="429" y="109" width="12" height="12" fill="#070d1c" stroke="#040814" stroke-width=".6"/><rect x="429" y="124" width="12" height="12" fill="#070d1c" stroke="#040814" stroke-width=".6"/><rect x="429" y="139" width="12" height="12" fill="#070d1c" stroke="#040814" stroke-width=".6"/><rect x="429" y="154" width="12" height="12" fill="#070d1c" stroke="#040814" stroke-width=".6"/><rect x="429" y="169" width="12" height="12" fill="#070d1c" stroke="#040814" stroke-width=".6"/><rect x="429" y="184" width="12" height="12" fill="#070d1c" stroke="#040814" stroke-width=".6"/><rect x="444" y="94" width="12" height="12" fill="#070d1c" stroke="#040814" stroke-width=".6"/><rect x="444" y="109" width="12" height="12" fill="#070d1c" stroke="#040814" stroke-width=".6"/><rect x="444" y="124" width="12" height="12" fill="#070d1c" stroke="#040814" stroke-width=".6"/><rect x="444" y="139" width="12" height="12" fill="#070d1c" stroke="#040814" stroke-width=".6"/><rect x="444" y="154" width="12" height="12" fill="#070d1c" stroke="#040814" stroke-width=".6"/><rect x="444" y="169" width="12" height="12" fill="#070d1c" stroke="#040814" stroke-width=".6"/><rect x="444" y="184" width="12" height="12" fill="#070d1c" stroke="#040814" stroke-width=".6"/><rect x="459" y="94" width="12" height="12" fill="#070d1c" stroke="#040814" stroke-width=".6"/><rect x="459" y="109" width="12" height="12" fill="#070d1c" stroke="#040814" stroke-width=".6"/><rect x="459" y="124" width="12" height="12" fill="#070d1c" stroke="#040814" stroke-width=".6"/><rect x="459" y="139" width="12" height="12" fill="#070d1c" stroke="#040814" stroke-width=".6"/><rect x="459" y="154" width="12" height="12" fill="#070d1c" stroke="#040814" stroke-width=".6"/><rect x="459" y="169" width="12" height="12" fill="#070d1c" stroke="#040814" stroke-width=".6"/><rect x="459" y="184" width="12" height="12" fill="#070d1c" stroke="#040814" stroke-width=".6"/><rect x="474" y="94" width="12" height="12" fill="#070d1c" stroke="#040814" stroke-width=".6"/><rect x="474" y="109" width="12" height="12" fill="#070d1c" stroke="#040814" stroke-width=".6"/><rect x="474" y="124" width="12" height="12" fill="#070d1c" stroke="#040814" stroke-width=".6"/><rect x="474" y="139" width="12" height="12" fill="#070d1c" stroke="#040814" stroke-width=".6"/><rect x="474" y="154" width="12" height="12" fill="#070d1c" stroke="#040814" stroke-width=".6"/><rect x="474" y="169" width="12" height="12" fill="#070d1c" stroke="#040814" stroke-width=".6"/><rect x="474" y="184" width="12" height="12" fill="#070d1c" stroke="#040814" stroke-width=".6"/><rect x="489" y="94" width="12" height="12" fill="#070d1c" stroke="#040814" stroke-width=".6"/><rect x="489" y="109" width="12" height="12" fill="#070d1c" stroke="#040814" stroke-width=".6"/><rect x="489" y="124" width="12" height="12" fill="#070d1c" stroke="#040814" stroke-width=".6"/><rect x="489" y="139" width="12" height="12" fill="#070d1c" stroke="#040814" stroke-width=".6"/><rect x="489" y="154" width="12" height="12" fill="#070d1c" stroke="#040814" stroke-width=".6"/><rect x="489" y="169" width="12" height="12" fill="#070d1c" stroke="#040814" stroke-width=".6"/><rect x="489" y="184" width="12" height="12" fill="#070d1c" stroke="#040814" stroke-width=".6"/><rect x="504" y="94" width="12" height="12" fill="#070d1c" stroke="#040814" stroke-width=".6"/><rect x="504" y="109" width="12" height="12" fill="#070d1c" stroke="#040814" stroke-width=".6"/><rect x="504" y="124" width="12" height="12" fill="#070d1c" stroke="#040814" stroke-width=".6"/><rect x="504" y="139" width="12" height="12" fill="#070d1c" stroke="#040814" stroke-width=".6"/><rect x="504" y="154" width="12" height="12" fill="#070d1c" stroke="#040814" stroke-width=".6"/><rect x="504" y="169" width="12" height="12" fill="#070d1c" stroke="#040814" stroke-width=".6"/><rect x="504" y="184" width="12" height="12" fill="#070d1c" stroke="#040814" stroke-width=".6"/><rect x="519" y="94" width="12" height="12" fill="#070d1c" stroke="#040814" stroke-width=".6"/><rect x="519" y="109" width="12" height="12" fill="#070d1c" stroke="#040814" stroke-width=".6"/><rect x="519" y="124" width="12" height="12" fill="#070d1c" stroke="#040814" stroke-width=".6"/><rect x="519" y="139" width="12" height="12" fill="#070d1c" stroke="#040814" stroke-width=".6"/><rect x="519" y="154" width="12" height="12" fill="#070d1c" stroke="#040814" stroke-width=".6"/><rect x="519" y="169" width="12" height="12" fill="#004759" stroke="#040814" stroke-width=".6"/><rect x="519" y="184" width="12" height="12" fill="#070d1c" stroke="#040814" stroke-width=".6"/><rect x="534" y="94" width="12" height="12" fill="#070d1c" stroke="#040814" stroke-width=".6"/><rect x="534" y="109" width="12" height="12" fill="#070d1c" stroke="#040814" stroke-width=".6"/><rect x="534" y="124" width="12" height="12" fill="#070d1c" stroke="#040814" stroke-width=".6"/><rect x="534" y="139" width="12" height="12" fill="#070d1c" stroke="#040814" stroke-width=".6"/><rect x="534" y="154" width="12" height="12" fill="#070d1c" stroke="#040814" stroke-width=".6"/><rect x="534" y="169" width="12" height="12" fill="#070d1c" stroke="#040814" stroke-width=".6"/><rect x="534" y="184" width="12" height="12" fill="#070d1c" stroke="#040814" stroke-width=".6"/><rect x="549" y="94" width="12" height="12" fill="#070d1c" stroke="#040814" stroke-width=".6"/><rect x="549" y="109" width="12" height="12" fill="#070d1c" stroke="#040814" stroke-width=".6"/><rect x="549" y="124" width="12" height="12" fill="#070d1c" stroke="#040814" stroke-width=".6"/><rect x="549" y="139" width="12" height="12" fill="#070d1c" stroke="#040814" stroke-width=".6"/><rect x="549" y="154" width="12" height="12" fill="#070d1c" stroke="#040814" stroke-width=".6"/><rect x="549" y="169" width="12" height="12" fill="#070d1c" stroke="#040814" stroke-width=".6"/><rect x="549" y="184" width="12" height="12" fill="#070d1c" stroke="#040814" stroke-width=".6"/><rect x="564" y="94" width="12" height="12" fill="#070d1c" stroke="#040814" stroke-width=".6"/><rect x="564" y="109" width="12" height="12" fill="#070d1c" stroke="#040814" stroke-width=".6"/><rect x="564" y="124" width="12" height="12" fill="#070d1c" stroke="#040814" stroke-width=".6"/><rect x="564" y="139" width="12" height="12" fill="#070d1c" stroke="#040814" stroke-width=".6"/><rect x="564" y="154" width="12" height="12" fill="#070d1c" stroke="#040814" stroke-width=".6"/><rect x="564" y="169" width="12" height="12" fill="#070d1c" stroke="#040814" stroke-width=".6"/><rect x="564" y="184" width="12" height="12" fill="#070d1c" stroke="#040814" stroke-width=".6"/><rect x="579" y="94" width="12" height="12" fill="#070d1c" stroke="#040814" stroke-width=".6"/><rect x="579" y="109" width="12" height="12" fill="#070d1c" stroke="#040814" stroke-width=".6"/><rect x="579" y="124" width="12" height="12" fill="#070d1c" stroke="#040814" stroke-width=".6"/><rect x="579" y="139" width="12" height="12" fill="#070d1c" stroke="#040814" stroke-width=".6"/><rect x="579" y="154" width="12" height="12" fill="#004759" stroke="#040814" stroke-width=".6"/><rect x="579" y="169" width="12" height="12" fill="#070d1c" stroke="#040814" stroke-width=".6"/><rect x="579" y="184" width="12" height="12" fill="#070d1c" stroke="#040814" stroke-width=".6"/><rect x="594" y="94" width="12" height="12" fill="#070d1c" stroke="#040814" stroke-width=".6"/><rect x="594" y="109" width="12" height="12" fill="#008399" stroke="#040814" stroke-width=".6"/><rect x="594" y="124" width="12" height="12" fill="#004759" stroke="#040814" stroke-width=".6"/><rect x="594" y="139" width="12" height="12" fill="#070d1c" stroke="#040814" stroke-width=".6"/><rect x="594" y="154" width="12" height="12" fill="#004759" stroke="#040814" stroke-width=".6"/><rect x="594" y="169" width="12" height="12" fill="#004759" stroke="#040814" stroke-width=".6"/><rect x="594" y="184" width="12" height="12" fill="#004759" stroke="#040814" stroke-width=".6"/><rect x="609" y="94" width="12" height="12" fill="#070d1c" stroke="#040814" stroke-width=".6"/><rect x="609" y="109" width="12" height="12" fill="#004759" stroke="#040814" stroke-width=".6"/><rect x="609" y="124" width="12" height="12" fill="#004759" stroke="#040814" stroke-width=".6"/><rect x="609" y="139" width="12" height="12" fill="#070d1c" stroke="#040814" stroke-width=".6"/><rect x="609" y="154" width="12" height="12" fill="#004759" stroke="#040814" stroke-width=".6"/><rect x="609" y="169" width="12" height="12" fill="#004759" stroke="#040814" stroke-width=".6"/><rect x="609" y="184" width="12" height="12" fill="#070d1c" stroke="#040814" stroke-width=".6"/><rect x="624" y="94" width="12" height="12" fill="#004759" stroke="#040814" stroke-width=".6"/><rect x="624" y="109" width="12" height="12" fill="#004759" stroke="#040814" stroke-width=".6"/><rect x="624" y="124" width="12" height="12" fill="#004759" stroke="#040814" stroke-width=".6"/><rect x="624" y="139" width="12" height="12" fill="#070d1c" stroke="#040814" stroke-width=".6"/><rect x="624" y="154" width="12" height="12" fill="#004759" stroke="#040814" stroke-width=".6"/><rect x="624" y="169" width="12" height="12" fill="#070d1c" stroke="#040814" stroke-width=".6"/><rect x="624" y="184" width="12" height="12" fill="#070d1c" stroke="#040814" stroke-width=".6"/><rect x="639" y="94" width="12" height="12" fill="#004759" stroke="#040814" stroke-width=".6"/><rect x="639" y="109" width="12" height="12" fill="#004759" stroke="#040814" stroke-width=".6"/><rect x="639" y="124" width="12" height="12" fill="#008399" stroke="#040814" stroke-width=".6"/><rect x="639" y="139" width="12" height="12" fill="#004759" stroke="#040814" stroke-width=".6"/><rect x="639" y="154" width="12" height="12" fill="#004759" stroke="#040814" stroke-width=".6"/><rect x="639" y="169" width="12" height="12" fill="#008399" stroke="#040814" stroke-width=".6"/><rect x="639" y="184" width="12" height="12" fill="#008399" stroke="#040814" stroke-width=".6"/><rect x="654" y="94" width="12" height="12" fill="#004759" stroke="#040814" stroke-width=".6"/><rect x="654" y="109" width="12" height="12" fill="#004759" stroke="#040814" stroke-width=".6"/><rect x="654" y="124" width="12" height="12" fill="#004759" stroke="#040814" stroke-width=".6"/><rect x="654" y="139" width="12" height="12" fill="#070d1c" stroke="#040814" stroke-width=".6"/><rect x="654" y="154" width="12" height="12" fill="#004759" stroke="#040814" stroke-width=".6"/><rect x="654" y="169" width="12" height="12" fill="#00f0ff" stroke="#040814" stroke-width=".6"/><rect x="654" y="184" width="12" height="12" fill="#070d1c" stroke="#040814" stroke-width=".6"/><rect x="669" y="94" width="12" height="12" fill="#070d1c" stroke="#040814" stroke-width=".6"/><rect x="669" y="109" width="12" height="12" fill="#070d1c" stroke="#040814" stroke-width=".6"/><rect x="669" y="124" width="12" height="12" fill="#070d1c" stroke="#040814" stroke-width=".6"/><rect x="669" y="139" width="12" height="12" fill="#070d1c" stroke="#040814" stroke-width=".6"/><rect x="669" y="154" width="12" height="12" fill="#070d1c" stroke="#040814" stroke-width=".6"/><rect x="669" y="169" width="12" height="12" fill="#070d1c" stroke="#040814" stroke-width=".6"/><rect x="669" y="184" width="12" height="12" fill="#070d1c" stroke="#040814" stroke-width=".6"/><rect x="684" y="94" width="12" height="12" fill="#004759" stroke="#040814" stroke-width=".6"/><rect x="684" y="109" width="12" height="12" fill="#070d1c" stroke="#040814" stroke-width=".6"/><rect x="684" y="124" width="12" height="12" fill="#004759" stroke="#040814" stroke-width=".6"/><rect x="684" y="139" width="12" height="12" fill="#070d1c" stroke="#040814" stroke-width=".6"/><rect x="684" y="154" width="12" height="12" fill="#004759" stroke="#040814" stroke-width=".6"/><rect x="684" y="169" width="12" height="12" fill="#070d1c" stroke="#040814" stroke-width=".6"/><rect x="684" y="184" width="12" height="12" fill="#070d1c" stroke="#040814" stroke-width=".6"/><rect x="699" y="94" width="12" height="12" fill="#070d1c" stroke="#040814" stroke-width=".6"/><rect x="699" y="109" width="12" height="12" fill="#004759" stroke="#040814" stroke-width=".6"/><rect x="699" y="124" width="12" height="12" fill="#004759" stroke="#040814" stroke-width=".6"/><rect x="699" y="139" width="12" height="12" fill="#070d1c" stroke="#040814" stroke-width=".6"/><rect x="699" y="154" width="12" height="12" fill="#070d1c" stroke="#040814" stroke-width=".6"/><rect x="699" y="169" width="12" height="12" fill="#070d1c" stroke="#040814" stroke-width=".6"/><rect x="699" y="184" width="12" height="12" fill="#004759" stroke="#040814" stroke-width=".6"/><rect x="714" y="94" width="12" height="12" fill="#004759" stroke="#040814" stroke-width=".6"/><rect x="714" y="109" width="12" height="12" fill="#070d1c" stroke="#040814" stroke-width=".6"/><rect x="714" y="124" width="12" height="12" fill="#070d1c" stroke="#040814" stroke-width=".6"/><rect x="714" y="139" width="12" height="12" fill="#004759" stroke="#040814" stroke-width=".6"/><rect x="714" y="154" width="12" height="12" fill="#004759" stroke="#040814" stroke-width=".6"/><rect x="714" y="169" width="12" height="12" fill="#070d1c" stroke="#040814" stroke-width=".6"/><rect x="714" y="184" width="12" height="12" fill="#070d1c" stroke="#040814" stroke-width=".6"/><rect x="729" y="94" width="12" height="12" fill="#070d1c" stroke="#040814" stroke-width=".6"/><rect x="729" y="109" width="12" height="12" fill="#070d1c" stroke="#040814" stroke-width=".6"/><rect x="729" y="124" width="12" height="12" fill="#004759" stroke="#040814" stroke-width=".6"/><rect x="729" y="139" width="12" height="12" fill="#070d1c" stroke="#040814" stroke-width=".6"/><rect x="729" y="154" width="12" height="12" fill="#070d1c" stroke="#040814" stroke-width=".6"/><rect x="729" y="169" width="12" height="12" fill="#070d1c" stroke="#040814" stroke-width=".6"/><rect x="729" y="184" width="12" height="12" fill="#070d1c" stroke="#040814" stroke-width=".6"/><rect x="744" y="94" width="12" height="12" fill="#004759" stroke="#040814" stroke-width=".6"/><rect x="744" y="109" width="12" height="12" fill="#070d1c" stroke="#040814" stroke-width=".6"/><rect x="744" y="124" width="12" height="12" fill="#008399" stroke="#040814" stroke-width=".6"/><rect x="744" y="139" width="12" height="12" fill="#070d1c" stroke="#040814" stroke-width=".6"/><rect x="744" y="154" width="12" height="12" fill="#004759" stroke="#040814" stroke-width=".6"/><rect x="744" y="169" width="12" height="12" fill="#070d1c" stroke="#040814" stroke-width=".6"/><rect x="744" y="184" width="12" height="12" fill="#070d1c" stroke="#040814" stroke-width=".6"/><rect x="759" y="94" width="12" height="12" fill="#070d1c" stroke="#040814" stroke-width=".6"/><rect x="759" y="109" width="12" height="12" fill="#008399" stroke="#040814" stroke-width=".6"/><rect x="759" y="124" width="12" height="12" fill="#004759" stroke="#040814" stroke-width=".6"/><rect x="759" y="139" width="12" height="12" fill="#070d1c" stroke="#040814" stroke-width=".6"/><rect x="759" y="154" width="12" height="12" fill="#070d1c" stroke="#040814" stroke-width=".6"/><rect x="759" y="169" width="12" height="12" fill="#070d1c" stroke="#040814" stroke-width=".6"/><rect x="759" y="184" width="12" height="12" fill="#070d1c" stroke="#040814" stroke-width=".6"/><rect x="774" y="94" width="12" height="12" fill="#004759" stroke="#040814" stroke-width=".6"/><rect x="774" y="109" width="12" height="12" fill="#070d1c" stroke="#040814" stroke-width=".6"/><rect x="774" y="124" width="12" height="12" fill="#070d1c" stroke="#040814" stroke-width=".6"/><rect x="774" y="139" width="12" height="12" fill="#070d1c" stroke="#040814" stroke-width=".6"/><rect x="774" y="154" width="12" height="12" fill="#004759" stroke="#040814" stroke-width=".6"/><rect x="774" y="169" width="12" height="12" fill="#070d1c" stroke="#040814" stroke-width=".6"/><rect x="774" y="184" width="12" height="12" fill="#008399" stroke="#040814" stroke-width=".6"/><rect x="789" y="94" width="12" height="12" fill="#004759" stroke="#040814" stroke-width=".6"/><rect x="789" y="109" width="12" height="12" fill="#070d1c" stroke="#040814" stroke-width=".6"/><rect x="789" y="124" width="12" height="12" fill="#070d1c" stroke="#040814" stroke-width=".6"/><rect x="789" y="139" width="12" height="12" fill="#070d1c" stroke="#040814" stroke-width=".6"/><rect x="789" y="154" width="12" height="12" fill="#070d1c" stroke="#040814" stroke-width=".6"/><rect x="789" y="169" width="12" height="12" fill="#070d1c" stroke="#040814" stroke-width=".6"/><rect x="789" y="184" width="12" height="12" fill="#070d1c" stroke="#040814" stroke-width=".6"/><rect x="804" y="94" width="12" height="12" fill="#070d1c" stroke="#040814" stroke-width=".6"/><rect x="804" y="109" width="12" height="12" fill="#070d1c" stroke="#040814" stroke-width=".6"/><rect x="804" y="124" width="12" height="12" fill="#070d1c" stroke="#040814" stroke-width=".6"/><rect x="804" y="139" width="12" height="12" fill="#070d1c" stroke="#040814" stroke-width=".6"/><rect x="804" y="154" width="12" height="12" fill="#070d1c" stroke="#040814" stroke-width=".6"/><rect x="804" y="169" width="12" height="12" fill="#070d1c" stroke="#040814" stroke-width=".6"/><rect x="804" y="184" width="12" height="12" fill="#070d1c" stroke="#040814" stroke-width=".6"/><rect x="819" y="94" width="12" height="12" fill="#070d1c" stroke="#040814" stroke-width=".6"/><rect x="819" y="109" width="12" height="12" fill="#004759" stroke="#040814" stroke-width=".6"/><rect x="819" y="124" width="12" height="12" fill="#004759" stroke="#040814" stroke-width=".6"/><rect x="819" y="139" width="12" height="12" fill="#070d1c" stroke="#040814" stroke-width=".6"/><rect x="819" y="154" width="12" height="12" fill="#070d1c" stroke="#040814" stroke-width=".6"/><rect x="819" y="169" width="12" height="12" fill="#070d1c" stroke="#040814" stroke-width=".6"/><rect x="819" y="184" width="12" height="12" fill="#070d1c" stroke="#040814" stroke-width=".6"/><rect x="834" y="94" width="12" height="12" fill="#070d1c" stroke="#040814" stroke-width=".6"/><rect x="834" y="109" width="12" height="12" fill="#070d1c" stroke="#040814" stroke-width=".6"/><rect x="834" y="124" width="12" height="12" fill="#004759" stroke="#040814" stroke-width=".6"/><rect x="834" y="139" width="12" height="12" fill="#070d1c" stroke="#040814" stroke-width=".6"/><rect x="834" y="154" width="12" height="12" fill="#070d1c" stroke="#040814" stroke-width=".6"/><rect x="834" y="169" width="12" height="12" fill="#070d1c" stroke="#040814" stroke-width=".6"/><rect x="834" y="184" width="12" height="12" fill="#070d1c" stroke="#040814" stroke-width=".6"/><rect x="849" y="94" width="12" height="12" fill="#008399" stroke="#040814" stroke-width=".6"/><rect x="849" y="109" width="12" height="12" fill="#070d1c" stroke="#040814" stroke-width=".6"/><rect x="849" y="124" width="12" height="12" fill="#070d1c" stroke="#040814" stroke-width=".6"/><rect x="849" y="139" width="12" height="12" fill="#070d1c" stroke="#040814" stroke-width=".6"/><rect x="849" y="154" width="12" height="12" fill="#070d1c" stroke="#040814" stroke-width=".6"/><rect x="849" y="169" width="12" height="12" fill="#070d1c" stroke="#040814" stroke-width=".6"/><rect x="849" y="184" width="12" height="12" fill="#070d1c" stroke="#040814" stroke-width=".6"/><rect x="864" y="94" width="12" height="12" fill="#070d1c" stroke="#040814" stroke-width=".6"/><rect x="864" y="109" width="12" height="12" fill="#004759" stroke="#040814" stroke-width=".6"/><rect x="864" y="124" width="12" height="12" fill="#008399" stroke="#040814" stroke-width=".6"/><rect x="864" y="139" width="12" height="12" fill="#070d1c" stroke="#040814" stroke-width=".6"/><rect x="864" y="154" width="12" height="12" fill="#004759" stroke="#040814" stroke-width=".6"/><rect x="864" y="169" width="12" height="12" fill="#070d1c" stroke="#040814" stroke-width=".6"/><rect x="864" y="184" width="12" height="12" fill="#070d1c" stroke="#040814" stroke-width=".6"/><text x="76" y="118" fill="#7898ba" font-family="monospace" font-size="8.5" text-anchor="end">MON</text><text x="76" y="148" fill="#7898ba" font-family="monospace" font-size="8.5" text-anchor="end">WED</text><text x="76" y="178" fill="#7898ba" font-family="monospace" font-size="8.5" text-anchor="end">FRI</text><text x="708" y="221" fill="#7898ba" font-family="monospace" font-size="9" text-anchor="end">IDLE</text><rect x="716" y="212" width="12" height="12" fill="#070d1c"/><rect x="732" y="212" width="12" height="12" fill="#004759"/><rect x="748" y="212" width="12" height="12" fill="#008399"/><rect x="764" y="212" width="12" height="12" fill="#00c8db"/><rect x="780" y="212" width="12" height="12" fill="#00f0ff"/><text x="802" y="221" fill="#7898ba" font-family="monospace" font-size="9">PEAK</text></svg>