<svg xmlns="http://www.w3.org/2000/svg" viewBox="0 0 900 396" width="900" height="396" role="img" aria-label="Cyber Language Distribution"><title>Cyber Language Distribution</title><defs>
<linearGradient id="cyberSky" x1="0" y1="0" x2="0" y2="1">
  <stop offset="0" stop-color="#02040a"/>
  <stop offset=".4" stop-color="#060b18"/>
  <stop offset=".8" stop-color="#0a152e"/>
  <stop offset="1" stop-color="#121026"/>
</linearGradient>

<linearGradient id="neonCyan" x1="0" y1="0" x2="1" y2="0">
  <stop offset="0" stop-color="#00c8ff"/>
  <stop offset=".5" stop-color="#00f0ff"/>
  <stop offset="1" stop-color="#70f8ff"/>
</linearGradient>

<linearGradient id="neonMagenta" x1="0" y1="0" x2="1" y2="0">
  <stop offset="0" stop-color="#ff0055"/>
  <stop offset=".5" stop-color="#ff00a0"/>
  <stop offset="1" stop-color="#bf00ff"/>
</linearGradient>

<linearGradient id="cyberLaser" x1="0" y1="0" x2="1" y2="0">
  <stop offset="0" stop-color="#00f0ff" stop-opacity="0"/>
  <stop offset=".15" stop-color="#00f0ff" stop-opacity=".8"/>
  <stop offset=".5" stop-color="#ffffff" stop-opacity="1"/>
  <stop offset=".85" stop-color="#ff007f" stop-opacity=".8"/>
  <stop offset="1" stop-color="#ff007f" stop-opacity="0"/>
</linearGradient>

<linearGradient id="scanBeam" x1="0" y1="0" x2="0" y2="1">
  <stop offset="0" stop-color="#00f0ff" stop-opacity="0"/>
  <stop offset=".8" stop-color="#00f0ff" stop-opacity=".15"/>
  <stop offset="1" stop-color="#00f0ff" stop-opacity=".85"/>
</linearGradient>

<linearGradient id="cyberCardBg" x1="0" y1="0" x2="0" y2="1">
  <stop offset="0" stop-color="#091224" stop-opacity=".96"/>
  <stop offset="1" stop-color="#050a16" stop-opacity=".98"/>
</linearGradient>

<pattern id="cyberGrid" width="30" height="30" patternUnits="userSpaceOnUse">
  <path d="M 30 0 L 0 0 0 30" fill="none" stroke="#00f0ff" stroke-width=".7" stroke-opacity=".08"/>
</pattern>

<pattern id="hexGrid" width="28" height="48.5" patternUnits="userSpaceOnUse">
  <path d="M14 0L28 8.08V24.25L14 32.33L0 24.25V8.08Z M0 48.5L14 40.42L28 48.5" fill="none" stroke="#00f0ff" stroke-width=".6" stroke-opacity=".06"/>
</pattern>

<filter id="glowCyan" x="-40%" y="-40%" width="180%" height="180%">
  <feGaussianBlur stdDeviation="3.5" result="blur"/>
  <feMerge>
    <feMergeNode in="blur"/>
    <feMergeNode in="SourceGraphic"/>
  </feMerge>
</filter>

<filter id="glowMagenta" x="-40%" y="-40%" width="180%" height="180%">
  <feGaussianBlur stdDeviation="3.5" result="blur"/>
  <feMerge>
    <feMergeNode in="blur"/>
    <feMergeNode in="SourceGraphic"/>
  </feMerge>
</filter>

<filter id="laserBlur" x="-20%" y="-20%" width="140%" height="140%">
  <feGaussianBlur stdDeviation="5"/>
</filter>
<linearGradient id="cyberLg0" x1="0" y1="0" x2="1" y2="0"><stop offset="0" stop-color="#00f0ff"/><stop offset="1" stop-color="#0088cc"/></linearGradient><linearGradient id="cyberLg1" x1="0" y1="0" x2="1" y2="0"><stop offset="0" stop-color="#ff007f"/><stop offset="1" stop-color="#aa0055"/></linearGradient><linearGradient id="cyberLg2" x1="0" y1="0" x2="1" y2="0"><stop offset="0" stop-color="#00ff9d"/><stop offset="1" stop-color="#00995e"/></linearGradient><linearGradient id="cyberLg3" x1="0" y1="0" x2="1" y2="0"><stop offset="0" stop-color="#fcee0a"/><stop offset="1" stop-color="#cc9900"/></linearGradient><linearGradient id="cyberLg4" x1="0" y1="0" x2="1" y2="0"><stop offset="0" stop-color="#9d00ff"/><stop offset="1" stop-color="#5500aa"/></linearGradient><linearGradient id="cyberLg5" x1="0" y1="0" x2="1" y2="0"><stop offset="0" stop-color="#38b6ff"/><stop offset="1" stop-color="#0055aa"/></linearGradient></defs><polygon points="14,0 886,0 900,14 900,382 886,396 14,396 0,382 0,14" fill="url(#cyberCardBg)" stroke="#142442" stroke-width="1.2"/><polygon points="16,2 884,2 898,16 898,380 884,394 16,394 2,380 2,16" fill="url(#cyberGrid)" opacity=".7"/><path d="M 0,24 L 0,14 L 14,0 L 28,0" fill="none" stroke="#00f0ff" stroke-width="2.2"/><path d="M 872,0 L 886,0 L 900,14 L 900,24" fill="none" stroke="#00f0ff" stroke-width="2.2"/><path d="M 900,372 L 900,382 L 886,396 L 872,396" fill="none" stroke="#ff007f" stroke-width="2.2"/><path d="M 28,396 L 14,396 L 0,382 L 0,372" fill="none" stroke="#ff007f" stroke-width="2.2"/><line x1="410" y1="1" x2="490" y2="1" stroke="#00f0ff" stroke-width="2" stroke-opacity=".7"/><circle cx="406" cy="1" r="1.5" fill="#00f0ff"/><circle cx="494" cy="1" r="1.5" fill="#00f0ff"/><text x="48" y="48" fill="#00f0ff" font-family="monospace" font-size="14" font-weight="bold" letter-spacing="2">TELEMETRY // CODE METRICS BY WEIGHT</text><text x="852" y="48" fill="#7898ba" font-family="monospace" font-size="11" text-anchor="end">BYTES PER LANGUAGE IN REPOS</text><line x1="48" y1="62" x2="852" y2="62" stroke="#142442" stroke-width="1.2"/><circle cx="58" cy="97" r="5" fill="#00f0ff"/><text x="76" y="102" fill="#e6f6ff" font-family="monospace" font-size="12" font-weight="bold">C++</text><rect x="240" y="86" width="520" height="18" fill="#070d1a" stroke="#142442" stroke-width="1"/><rect x="240" y="86" width="251" height="18" fill="url(#cyberLg0)"/><text x="852" y="101" fill="#00f0ff" font-family="monospace" font-size="12" font-weight="bold" text-anchor="end">48.2%</text><circle cx="58" cy="145" r="5" fill="#ff007f"/><text x="76" y="150" fill="#e6f6ff" font-family="monospace" font-size="12" font-weight="bold">JAVA</text><rect x="240" y="134" width="520" height="18" fill="#070d1a" stroke="#142442" stroke-width="1"/><rect x="240" y="134" width="127" height="18" fill="url(#cyberLg1)"/><text x="852" y="149" fill="#ff007f" font-family="monospace" font-size="12" font-weight="bold" text-anchor="end">24.5%</text><circle cx="58" cy="193" r="5" fill="#00ff9d"/><text x="76" y="198" fill="#e6f6ff" font-family="monospace" font-size="12" font-weight="bold">PYTHON</text><rect x="240" y="182" width="520" height="18" fill="#070d1a" stroke="#142442" stroke-width="1"/><rect x="240" y="182" width="77" height="18" fill="url(#cyberLg2)"/><text x="852" y="197" fill="#00ff9d" font-family="monospace" font-size="12" font-weight="bold" text-anchor="end">14.8%</text><circle cx="58" cy="241" r="5" fill="#fcee0a"/><text x="76" y="246" fill="#e6f6ff" font-family="monospace" font-size="12" font-weight="bold">JAVASCRIPT</text><rect x="240" y="230" width="520" height="18" fill="#070d1a" stroke="#142442" stroke-width="1"/><rect x="240" y="230" width="34" height="18" fill="url(#cyberLg3)"/><text x="852" y="245" fill="#fcee0a" font-family="monospace" font-size="12" font-weight="bold" text-anchor="end">6.5%</text><circle cx="58" cy="289" r="5" fill="#9d00ff"/><text x="76" y="294" fill="#e6f6ff" font-family="monospace" font-size="12" font-weight="bold">SQL</text><rect x="240" y="278" width="520" height="18" fill="#070d1a" stroke="#142442" stroke-width="1"/><rect x="240" y="278" width="20" height="18" fill="url(#cyberLg4)"/><text x="852" y="293" fill="#9d00ff" font-family="monospace" font-size="12" font-weight="bold" text-anchor="end">3.8%</text><circle cx="58" cy="337" r="5" fill="#38b6ff"/><text x="76" y="342" fill="#e6f6ff" font-family="monospace" font-size="12" font-weight="bold">HTML/CSS</text><rect x="240" y="326" width="520" height="18" fill="#070d1a" stroke="#142442" stroke-width="1"/><rect x="240" y="326" width="14" height="18" fill="url(#cyberLg5)"/><text x="852" y="341" fill="#38b6ff" font-family="monospace" font-size="12" font-weight="bold" text-anchor="end">2.2%</text></svg>