<svg xmlns="http://www.w3.org/2000/svg" viewBox="0 0 900 468" width="900" height="468" role="img" aria-label="GitHub Cyber Stats Matrix"><title>GitHub Cyber Stats Matrix</title><defs>
<linearGradient id="cyberSky" x1="0" y1="0" x2="0" y2="1">
  <stop offset="0" stop-color="#02040a"/>
  <stop offset=".4" stop-color="#060b18"/>
  <stop offset=".8" stop-color="#0a152e"/>
  <stop offset="1" stop-color="#121026"/>
</linearGradient>

<linearGradient id="neonCyan" x1="0" y1="0" x2="1" y2="0">
  <stop offset="0" stop-color="#00c8ff"/>
  <stop offset=".5" stop-color="#00f0ff"/>
  <stop offset="1" stop-color="#70f8ff"/>
</linearGradient>

<linearGradient id="neonMagenta" x1="0" y1="0" x2="1" y2="0">
  <stop offset="0" stop-color="#ff0055"/>
  <stop offset=".5" stop-color="#ff00a0"/>
  <stop offset="1" stop-color="#bf00ff"/>
</linearGradient>

<linearGradient id="cyberLaser" x1="0" y1="0" x2="1" y2="0">
  <stop offset="0" stop-color="#00f0ff" stop-opacity="0"/>
  <stop offset=".15" stop-color="#00f0ff" stop-opacity=".8"/>
  <stop offset=".5" stop-color="#ffffff" stop-opacity="1"/>
  <stop offset=".85" stop-color="#ff007f" stop-opacity=".8"/>
  <stop offset="1" stop-color="#ff007f" stop-opacity="0"/>
</linearGradient>

<linearGradient id="scanBeam" x1="0" y1="0" x2="0" y2="1">
  <stop offset="0" stop-color="#00f0ff" stop-opacity="0"/>
  <stop offset=".8" stop-color="#00f0ff" stop-opacity=".15"/>
  <stop offset="1" stop-color="#00f0ff" stop-opacity=".85"/>
</linearGradient>

<linearGradient id="cyberCardBg" x1="0" y1="0" x2="0" y2="1">
  <stop offset="0" stop-color="#091224" stop-opacity=".96"/>
  <stop offset="1" stop-color="#050a16" stop-opacity=".98"/>
</linearGradient>

<pattern id="cyberGrid" width="30" height="30" patternUnits="userSpaceOnUse">
  <path d="M 30 0 L 0 0 0 30" fill="none" stroke="#00f0ff" stroke-width=".7" stroke-opacity=".08"/>
</pattern>

<pattern id="hexGrid" width="28" height="48.5" patternUnits="userSpaceOnUse">
  <path d="M14 0L28 8.08V24.25L14 32.33L0 24.25V8.08Z M0 48.5L14 40.42L28 48.5" fill="none" stroke="#00f0ff" stroke-width=".6" stroke-opacity=".06"/>
</pattern>

<filter id="glowCyan" x="-40%" y="-40%" width="180%" height="180%">
  <feGaussianBlur stdDeviation="3.5" result="blur"/>
  <feMerge>
    <feMergeNode in="blur"/>
    <feMergeNode in="SourceGraphic"/>
  </feMerge>
</filter>

<filter id="glowMagenta" x="-40%" y="-40%" width="180%" height="180%">
  <feGaussianBlur stdDeviation="3.5" result="blur"/>
  <feMerge>
    <feMergeNode in="blur"/>
    <feMergeNode in="SourceGraphic"/>
  </feMerge>
</filter>

<filter id="laserBlur" x="-20%" y="-20%" width="140%" height="140%">
  <feGaussianBlur stdDeviation="5"/>
</filter>
<path id="deco-34" d="M511 89V-37Q511 -67 539 -83Q551 -90 566 -90H577V-100H239L240 -90H250Q273 -90 289 -75Q305 -60 306 -38V89H-15V99L501 614H511V194H554Q580 194 594 204Q609 213 619 234H629L598 89ZM306 194V341L154 194Z"/><path id="deco-39" d="M240 144Q186 144 153 160Q120 176 94 202Q40 255 40 357Q40 468 112 538Q188 611 339 611Q635 611 635 281Q635 63 506 -51Q402 -144 214 -144Q167 -144 116 -138L112 -131Q202 -103 241 -80Q280 -57 302 -41Q324 -25 340 -4Q356 17 368 36Q380 54 388 80Q395 106 400 128Q404 149 406 181Q410 231 410 281Q410 331 410 350Q410 368 409 392Q408 415 407 430Q406 444 404 462Q402 479 399 489Q396 499 392 510Q388 522 382 528Q377 535 370 541Q357 551 332 551Q307 551 288 538Q270 524 261 498Q245 452 245 376Q245 299 258 264Q277 215 322 215Q345 215 370 231L377 223Q366 196 341 177Q316 158 286 151Q257 144 240 144Z"/><path id="deco-37" d="M90 425Q61 425 44 410Q27 396 15 365H5L33 598H563L435 303Q406 237 363 108Q320 -21 298 -100H128Q177 -20 252 115Q328 250 358 314L410 425Z"/><path id="deco-31" d="M46 10Q69 10 85 26Q101 42 101 64V537Q101 567 74 583Q61 590 46 590H25V600H382L381 590H361Q329 590 313 564Q306 552 305 537V63Q305 33 333 17Q346 10 361 10H381L382 0H25V10Z"/><path id="deco-30" d="M350 -14Q253 -14 184 23Q114 60 77 131Q40 202 40 300Q40 448 122 531Q204 614 350 614Q496 614 578 531Q660 448 660 300Q660 152 578 69Q496 -14 350 -14ZM262 158Q286 36 350 36Q397 36 424 106Q450 176 450 300Q450 424 424 494Q397 564 350 564Q303 564 276 494Q250 424 250 321Q250 218 262 158Z"/><path id="deco-33" d="M279 612Q399 612 466 567Q533 522 533 440Q533 347 454 309Q428 296 398 295Q491 277 536 205Q562 163 562 100Q562 15 511 -49Q415 -170 222 -170Q124 -170 39 -132L41 -122Q46 -122 52 -122Q127 -122 194 -94Q262 -67 304 -11Q347 45 347 116Q347 216 264 260Q219 283 162 284L164 294Q167 294 170 294Q236 294 282 340Q328 387 328 448Q328 514 287 542Q259 563 220 563Q149 563 120 510Q97 467 97 385Q97 377 97 368H87L30 541Q69 573 134 592Q200 612 279 612Z"/><path id="deco-32" d="M578 451Q578 406 547 357Q530 329 470 281Q433 251 362 215Q292 179 287 176H477Q521 176 554 200Q588 223 614 273H624L556 0H36V9Q69 48 123 106Q177 164 214 204Q250 245 287 293Q363 391 363 474Q363 529 330 558Q298 588 250 588Q176 588 142 536Q107 483 107 392H97L30 563Q72 597 144 616Q216 635 294 635Q373 635 438 614Q502 592 540 550Q578 508 578 451Z"/><path id="deco-36" d="M435 452Q489 452 522 436Q555 420 581 394Q635 341 635 240Q635 128 563 58Q487 -15 336 -15Q40 -15 40 315Q40 533 168 647Q273 741 461 741Q508 741 559 734L563 727Q473 699 434 676Q395 653 373 637Q351 621 335 600Q319 579 307 560Q295 542 288 516Q280 490 276 468Q271 447 268 415Q265 365 265 305Q265 245 266 217Q266 189 268 156Q271 123 276 106Q280 90 289 73Q304 45 336 45Q368 45 386 58Q404 72 414 98Q430 144 430 221Q430 298 417 332Q399 381 353 381Q330 381 305 365L298 373Q309 400 334 419Q359 438 388 445Q418 452 435 452Z"/></defs><polygon points="16,0 884,0 900,16 900,452 884,468 16,468 0,452 0,16" fill="url(#cyberCardBg)" stroke="#142442" stroke-width="1.4"/><polygon points="18,2 882,2 898,18 898,450 882,466 18,466 2,450 2,18" fill="url(#cyberGrid)" opacity=".7"/><path d="M 0,24 L 0,16 L 16,0 L 28,0" fill="none" stroke="#00f0ff" stroke-width="2.2"/><path d="M 872,0 L 884,0 L 900,16 L 900,24" fill="none" stroke="#00f0ff" stroke-width="2.2"/><path d="M 900,444 L 900,452 L 884,468 L 872,468" fill="none" stroke="#ff007f" stroke-width="2.2"/><path d="M 28,468 L 16,468 L 0,452 L 0,444" fill="none" stroke="#ff007f" stroke-width="2.2"/><line x1="410" y1="1" x2="490" y2="1" stroke="#00f0ff" stroke-width="2" stroke-opacity=".7"/><circle cx="406" cy="1" r="1.5" fill="#00f0ff"/><circle cx="494" cy="1" r="1.5" fill="#00f0ff"/><g opacity=".75"><line x1="2" y1="0" x2="898" y2="0" stroke="url(#neonCyan)" stroke-width="1.8" filter="url(#laserBlur)"><animate attributeName="y1" values="2;464;2" dur="6.0s" repeatCount="indefinite"/><animate attributeName="y2" values="2;464;2" dur="6.0s" repeatCount="indefinite"/></line><line x1="2" y1="0" x2="898" y2="0" stroke="#fff" stroke-width="1"><animate attributeName="y1" values="2;464;2" dur="6.0s" repeatCount="indefinite"/><animate attributeName="y2" values="2;464;2" dur="6.0s" repeatCount="indefinite"/></line></g><g fill="#00f0ff" ><use href="#deco-34" transform="translate(111.8 150) scale(0.0500 -0.0500)"/><use href="#deco-39" transform="translate(144.9 150) scale(0.0500 -0.0500)"/><use href="#deco-37" transform="translate(179.7 150) scale(0.0500 -0.0500)"/></g><text x="160" y="184" fill="#7898ba" font-family="monospace" font-size="11" font-weight="bold" text-anchor="middle" letter-spacing="2">TOTAL TELEMETRY</text><text x="160" y="208" fill="#7898ba" font-family="monospace" font-size="10" text-anchor="middle">since Jul 2024</text><g fill="#ff007f" ><use href="#deco-31" transform="translate(711.9 150) scale(0.0500 -0.0500)"/><use href="#deco-30" transform="translate(733.1 150) scale(0.0500 -0.0500)"/></g><text x="740" y="184" fill="#7898ba" font-family="monospace" font-size="11" font-weight="bold" text-anchor="middle" letter-spacing="2">LONGEST OVERCLOCK</text><text x="740" y="208" fill="#7898ba" font-family="monospace" font-size="10" text-anchor="middle">Jun 14 – Jun 23</text><circle cx="450" cy="140" r="78" fill="#060c18" stroke="#142442" stroke-width="2"/><circle cx="450" cy="140" r="70" fill="none" stroke="#00f0ff" stroke-width="2" stroke-dasharray="12 8"><animateTransform attributeName="transform" type="rotate" from="0 450 140" to="360 450 140" dur="10s" repeatCount="indefinite"/></circle><circle cx="450" cy="140" r="58" fill="none" stroke="#ff007f" stroke-width="1.5" stroke-dasharray="18 12"><animateTransform attributeName="transform" type="rotate" from="360 450 140" to="0 450 140" dur="8s" repeatCount="indefinite"/></circle><g fill="#ffffff" ><use href="#deco-30" transform="translate(433.2 156) scale(0.0480 -0.0480)"/></g><text x="450" y="244" fill="#00f0ff" font-family="monospace" font-size="12" font-weight="bold" text-anchor="middle" letter-spacing="2">ACTIVE STREAK DAYS</text><text x="450" y="264" fill="#7898ba" font-family="monospace" font-size="10.5" text-anchor="middle"></text><line x1="60" y1="284" x2="840" y2="284" stroke="#142442" stroke-width="1.2"/><circle cx="112" cy="326" r="22" fill="#071020" stroke="#00f0ff" stroke-width="1.2"/><circle cx="112" cy="326" r="26" fill="#00f0ff" opacity=".15"><animate attributeName="r" values="22;30;22" dur="3s" repeatCount="indefinite"/></circle><g transform="translate(112 326)" stroke="#00f0ff" stroke-width="2" fill="none"><circle cx="0" cy="0" r="6"/><line x1="-14" y1="0" x2="-6" y2="0"/><line x1="6" y1="0" x2="14" y2="0"/></g><g fill="#00f0ff" ><use href="#deco-33" transform="translate(82 390) scale(0.0300 -0.0300)"/><use href="#deco-32" transform="translate(101 390) scale(0.0300 -0.0300)"/><use href="#deco-36" transform="translate(121.8 390) scale(0.0300 -0.0300)"/></g><text x="112" y="416" fill="#7898ba" font-family="monospace" font-size="10" font-weight="bold" text-anchor="middle" letter-spacing="1">COMMITS // 12 MO</text><circle cx="337" cy="326" r="22" fill="#071020" stroke="#ff007f" stroke-width="1.2"/><circle cx="337" cy="326" r="26" fill="#ff007f" opacity=".15"><animate attributeName="r" values="22;30;22" dur="3s" repeatCount="indefinite"/></circle><g transform="translate(337 326)" fill="none" stroke="#ff007f" stroke-width="2" stroke-linecap="round"><circle cx="-7" cy="-8" r="3.2"/><circle cx="-7" cy="9" r="3.2"/><circle cx="8" cy="9" r="3.2"/><path d="M-7 -4.8V5.8M-7 -1Q-7 4 8 5.6"/></g><g fill="#ff007f" ><use href="#deco-32" transform="translate(316.1 390) scale(0.0300 -0.0300)"/><use href="#deco-30" transform="translate(336.9 390) scale(0.0300 -0.0300)"/></g><text x="337" y="416" fill="#7898ba" font-family="monospace" font-size="10" font-weight="bold" text-anchor="middle" letter-spacing="1">PULL REQUESTS</text><line x1="224.5" y1="306" x2="224.5" y2="430" stroke="#142442" stroke-width="1"/><circle cx="562" cy="326" r="22" fill="#071020" stroke="#fcee0a" stroke-width="1.2"/><circle cx="562" cy="326" r="26" fill="#fcee0a" opacity=".15"><animate attributeName="r" values="22;30;22" dur="3s" repeatCount="indefinite"/></circle><polygon points="562.0,315.0 564.8,322.1 572.5,322.6 566.6,327.5 568.5,334.9 562.0,330.8 555.5,334.9 557.4,327.5 551.5,322.6 559.2,322.1" fill="#fcee0a"/><g fill="#fcee0a" ><use href="#deco-32" transform="translate(541.5 390) scale(0.0300 -0.0300)"/><use href="#deco-39" transform="translate(562.2 390) scale(0.0300 -0.0300)"/></g><text x="562" y="416" fill="#7898ba" font-family="monospace" font-size="10" font-weight="bold" text-anchor="middle" letter-spacing="1">STARS EARNED</text><line x1="449.5" y1="306" x2="449.5" y2="430" stroke="#142442" stroke-width="1"/><circle cx="787" cy="326" r="22" fill="#071020" stroke="#00ff9d" stroke-width="1.2"/><circle cx="787" cy="326" r="26" fill="#00ff9d" opacity=".15"><animate attributeName="r" values="22;30;22" dur="3s" repeatCount="indefinite"/></circle><g transform="translate(787 326)" fill="none" stroke="#00ff9d" stroke-width="2" stroke-linejoin="round"><path d="M-9 -11H7Q10 -11 10 -8V10H-6Q-9 10 -9 7Z"/><path d="M-9 7Q-9 4 -6 4H10"/><path d="M-3 -5H4" stroke-linecap="round"/></g><g fill="#00ff9d" ><use href="#deco-32" transform="translate(770.5 390) scale(0.0300 -0.0300)"/><use href="#deco-31" transform="translate(791.3 390) scale(0.0300 -0.0300)"/></g><text x="787" y="416" fill="#7898ba" font-family="monospace" font-size="10" font-weight="bold" text-anchor="middle" letter-spacing="1">PUBLIC REPOS</text><line x1="674.5" y1="306" x2="674.5" y2="430" stroke="#142442" stroke-width="1"/><text x="450" y="452" fill="#7898ba" font-family="monospace" font-size="10" text-anchor="middle" letter-spacing="1">Ledger updated Oct 05, 2026 · 14:47 UTC</text></svg>